<?xml version="1.0" encoding="UTF-8" standalone="no"?>
<!DOCTYPE svg PUBLIC "-//W3C//DTD SVG 1.1//EN"
 "http://www.w3.org/Graphics/SVG/1.1/DTD/svg11.dtd">
<!-- Generated by graphviz version 2.43.0 (0)
 -->
<!-- Title: Microservices Pages: 1 -->
<svg width="2418pt" height="1501pt"
 viewBox="0.00 0.00 2417.79 1501.10" xmlns="http://www.w3.org/2000/svg" xmlns:xlink="http://www.w3.org/1999/xlink">
<g id="graph0" class="graph" transform="scale(1 1) rotate(0) translate(4 1497.1)">
<title>Microservices</title>
<polygon fill="white" stroke="transparent" points="-4,4 -4,-1497.1 2413.79,-1497.1 2413.79,4 -4,4"/>
<!-- API: GET /models -->
<g id="node1" class="node">
<title>API: GET /models</title>
<path fill="lightblue" stroke="black" d="M729.02,-168C729.02,-168 612.02,-168 612.02,-168 606.02,-168 600.02,-162 600.02,-156 600.02,-156 600.02,-144 600.02,-144 600.02,-138 606.02,-132 612.02,-132 612.02,-132 729.02,-132 729.02,-132 735.02,-132 741.02,-138 741.02,-144 741.02,-144 741.02,-156 741.02,-156 741.02,-162 735.02,-168 729.02,-168"/>
<text text-anchor="middle" x="670.52" y="-146.3" font-family="Times,serif" font-size="14.00" fill="#080537">API: GET /models</text>
</g>
<!-- API: GET /v1/models -->
<g id="node63" class="node">
<title>API: GET /v1/models</title>
<path fill="lightblue" stroke="black" d="M580,-168C580,-168 441,-168 441,-168 435,-168 429,-162 429,-156 429,-156 429,-144 429,-144 429,-138 435,-132 441,-132 441,-132 580,-132 580,-132 586,-132 592,-138 592,-144 592,-144 592,-156 592,-156 592,-162 586,-168 580,-168"/>
<text text-anchor="middle" x="510.5" y="-146.3" font-family="Times,serif" font-size="14.00" fill="#080537">API: GET /v1/models</text>
</g>
<!-- API: GET /models&#45;&gt;API: GET /v1/models -->
<g id="edge6" class="edge">
<title>API: GET /models&#45;&gt;API: GET /v1/models</title>
<path fill="none" stroke="black" d="M599.86,-150C599.7,-150 599.54,-150 599.38,-150"/>
<polygon fill="black" stroke="black" points="602.05,-146.5 592.05,-150 602.05,-153.5 602.05,-146.5"/>
</g>
<!-- API: GET /models/MODEL_ID -->
<g id="node2" class="node">
<title>API: GET /models/MODEL_ID</title>
<path fill="lightblue" stroke="black" d="M1387.79,-465C1387.79,-465 1186.79,-465 1186.79,-465 1180.79,-465 1174.79,-459 1174.79,-453 1174.79,-453 1174.79,-441 1174.79,-441 1174.79,-435 1180.79,-429 1186.79,-429 1186.79,-429 1387.79,-429 1387.79,-429 1393.79,-429 1399.79,-435 1399.79,-441 1399.79,-441 1399.79,-453 1399.79,-453 1399.79,-459 1393.79,-465 1387.79,-465"/>
<text text-anchor="middle" x="1287.29" y="-443.3" font-family="Times,serif" font-size="14.00" fill="#080537">API: GET /models/MODEL_ID</text>
</g>
<!-- API: GET /v1/models/MODEL_ID -->
<g id="node3" class="node">
<title>API: GET /v1/models/MODEL_ID</title>
<path fill="lightblue" stroke="black" d="M1154.76,-465C1154.76,-465 931.76,-465 931.76,-465 925.76,-465 919.76,-459 919.76,-453 919.76,-453 919.76,-441 919.76,-441 919.76,-435 925.76,-429 931.76,-429 931.76,-429 1154.76,-429 1154.76,-429 1160.76,-429 1166.76,-435 1166.76,-441 1166.76,-441 1166.76,-453 1166.76,-453 1166.76,-459 1160.76,-465 1154.76,-465"/>
<text text-anchor="middle" x="1043.26" y="-443.3" font-family="Times,serif" font-size="14.00" fill="#080537">API: GET /v1/models/MODEL_ID</text>
</g>
<!-- API: GET /models/MODEL_ID&#45;&gt;API: GET /v1/models/MODEL_ID -->
<g id="edge7" class="edge">
<title>API: GET /models/MODEL_ID&#45;&gt;API: GET /v1/models/MODEL_ID</title>
<path fill="none" stroke="black" d="M1174.56,-447C1174.4,-447 1174.25,-447 1174.09,-447"/>
<polygon fill="black" stroke="black" points="1177.06,-443.5 1167.06,-447 1177.06,-450.5 1177.06,-443.5"/>
</g>
<!-- Brain: GET /model/MODEL_ID -->
<g id="node12" class="node">
<title>Brain: GET /model/MODEL_ID</title>
<path fill="lightblue" stroke="black" d="M880,-465C880,-465 672,-465 672,-465 666,-465 660,-459 660,-453 660,-453 660,-441 660,-441 660,-435 666,-429 672,-429 672,-429 880,-429 880,-429 886,-429 892,-435 892,-441 892,-441 892,-453 892,-453 892,-459 886,-465 880,-465"/>
<text text-anchor="middle" x="776" y="-443.3" font-family="Times,serif" font-size="14.00" fill="#080537">Brain: GET /model/MODEL_ID</text>
</g>
<!-- API: GET /v1/models/MODEL_ID&#45;&gt;Brain: GET /model/MODEL_ID -->
<g id="edge3" class="edge">
<title>API: GET /v1/models/MODEL_ID&#45;&gt;Brain: GET /model/MODEL_ID</title>
<path fill="none" stroke="black" d="M919.41,-447C913.78,-447 908.12,-447 902.48,-447"/>
<polygon fill="black" stroke="black" points="902.36,-443.5 892.36,-447 902.36,-450.5 902.36,-443.5"/>
</g>
<!-- API: POST /chat/completions -->
<g id="node4" class="node">
<title>API: POST /chat/completions</title>
<path fill="lightblue" stroke="black" d="M1514.75,-1440.72C1514.75,-1440.72 1317.75,-1440.72 1317.75,-1440.72 1311.75,-1440.72 1305.75,-1434.72 1305.75,-1428.72 1305.75,-1428.72 1305.75,-1416.72 1305.75,-1416.72 1305.75,-1410.72 1311.75,-1404.72 1317.75,-1404.72 1317.75,-1404.72 1514.75,-1404.72 1514.75,-1404.72 1520.75,-1404.72 1526.75,-1410.72 1526.75,-1416.72 1526.75,-1416.72 1526.75,-1428.72 1526.75,-1428.72 1526.75,-1434.72 1520.75,-1440.72 1514.75,-1440.72"/>
<text text-anchor="middle" x="1416.25" y="-1419.02" font-family="Times,serif" font-size="14.00" fill="#080537">API: POST /chat/completions</text>
</g>
<!-- API: POST /v1/chat/completions -->
<g id="node6" class="node">
<title>API: POST /v1/chat/completions</title>
<path fill="lightblue" stroke="black" d="M1499.81,-1284.78C1499.81,-1284.78 1281.81,-1284.78 1281.81,-1284.78 1275.81,-1284.78 1269.81,-1278.78 1269.81,-1272.78 1269.81,-1272.78 1269.81,-1260.78 1269.81,-1260.78 1269.81,-1254.78 1275.81,-1248.78 1281.81,-1248.78 1281.81,-1248.78 1499.81,-1248.78 1499.81,-1248.78 1505.81,-1248.78 1511.81,-1254.78 1511.81,-1260.78 1511.81,-1260.78 1511.81,-1272.78 1511.81,-1272.78 1511.81,-1278.78 1505.81,-1284.78 1499.81,-1284.78"/>
<text text-anchor="middle" x="1390.81" y="-1263.08" font-family="Times,serif" font-size="14.00" fill="#080537">API: POST /v1/chat/completions</text>
</g>
<!-- API: POST /chat/completions&#45;&gt;API: POST /v1/chat/completions -->
<g id="edge5" class="edge">
<title>API: POST /chat/completions&#45;&gt;API: POST /v1/chat/completions</title>
<path fill="none" stroke="black" d="M1413.28,-1404.52C1408.88,-1377.53 1400.57,-1326.64 1395.39,-1294.85"/>
<polygon fill="black" stroke="black" points="1398.82,-1294.17 1393.76,-1284.86 1391.91,-1295.29 1398.82,-1294.17"/>
</g>
<!-- API: POST /completions -->
<g id="node5" class="node">
<title>API: POST /completions</title>
<path fill="lightblue" stroke="black" d="M1165.73,-1457.53C1165.73,-1457.53 1004.73,-1457.53 1004.73,-1457.53 998.73,-1457.53 992.73,-1451.53 992.73,-1445.53 992.73,-1445.53 992.73,-1433.53 992.73,-1433.53 992.73,-1427.53 998.73,-1421.53 1004.73,-1421.53 1004.73,-1421.53 1165.73,-1421.53 1165.73,-1421.53 1171.73,-1421.53 1177.73,-1427.53 1177.73,-1433.53 1177.73,-1433.53 1177.73,-1445.53 1177.73,-1445.53 1177.73,-1451.53 1171.73,-1457.53 1165.73,-1457.53"/>
<text text-anchor="middle" x="1085.23" y="-1435.83" font-family="Times,serif" font-size="14.00" fill="#080537">API: POST /completions</text>
</g>
<!-- API: POST /v1/completions -->
<g id="node7" class="node">
<title>API: POST /v1/completions</title>
<path fill="lightblue" stroke="black" d="M1279.88,-1328.79C1279.88,-1328.79 1096.88,-1328.79 1096.88,-1328.79 1090.88,-1328.79 1084.88,-1322.79 1084.88,-1316.79 1084.88,-1316.79 1084.88,-1304.79 1084.88,-1304.79 1084.88,-1298.79 1090.88,-1292.79 1096.88,-1292.79 1096.88,-1292.79 1279.88,-1292.79 1279.88,-1292.79 1285.88,-1292.79 1291.88,-1298.79 1291.88,-1304.79 1291.88,-1304.79 1291.88,-1316.79 1291.88,-1316.79 1291.88,-1322.79 1285.88,-1328.79 1279.88,-1328.79"/>
<text text-anchor="middle" x="1188.38" y="-1307.09" font-family="Times,serif" font-size="14.00" fill="#080537">API: POST /v1/completions</text>
</g>
<!-- API: POST /completions&#45;&gt;API: POST /v1/completions -->
<g id="edge4" class="edge">
<title>API: POST /completions&#45;&gt;API: POST /v1/completions</title>
<path fill="none" stroke="black" d="M1099.79,-1421.36C1117.45,-1399.31 1147.36,-1361.99 1167.48,-1336.88"/>
<polygon fill="black" stroke="black" points="1170.37,-1338.86 1173.89,-1328.87 1164.91,-1334.48 1170.37,-1338.86"/>
</g>
<!-- API: POST /v1/chat/completions&#45;&gt;API: POST /v1/completions -->
<g id="edge8" class="edge">
<title>API: POST /v1/chat/completions&#45;&gt;API: POST /v1/completions</title>
<path fill="none" stroke="black" d="M1307.89,-1284.81C1299.16,-1286.71 1290.25,-1288.64 1281.42,-1290.56"/>
<polygon fill="black" stroke="black" points="1280.53,-1287.18 1271.5,-1292.72 1282.01,-1294.02 1280.53,-1287.18"/>
<text text-anchor="middle" x="1337.21" y="-1292.56" font-family="Times,serif" font-size="14.00">if &#39;### Task&#39;</text>
</g>
<!-- Brain: POST /message/multiturn/incoming -->
<g id="node19" class="node">
<title>Brain: POST /message/multiturn/incoming</title>
<path fill="lightblue" stroke="black" d="M1700.72,-1126.77C1700.72,-1126.77 1406.72,-1126.77 1406.72,-1126.77 1400.72,-1126.77 1394.72,-1120.77 1394.72,-1114.77 1394.72,-1114.77 1394.72,-1102.77 1394.72,-1102.77 1394.72,-1096.77 1400.72,-1090.77 1406.72,-1090.77 1406.72,-1090.77 1700.72,-1090.77 1700.72,-1090.77 1706.72,-1090.77 1712.72,-1096.77 1712.72,-1102.77 1712.72,-1102.77 1712.72,-1114.77 1712.72,-1114.77 1712.72,-1120.77 1706.72,-1126.77 1700.72,-1126.77"/>
<text text-anchor="middle" x="1553.72" y="-1105.07" font-family="Times,serif" font-size="14.00" fill="#080537">Brain: POST /message/multiturn/incoming</text>
</g>
<!-- API: POST /v1/chat/completions&#45;&gt;Brain: POST /message/multiturn/incoming -->
<g id="edge1" class="edge">
<title>API: POST /v1/chat/completions&#45;&gt;Brain: POST /message/multiturn/incoming</title>
<path fill="none" stroke="black" d="M1409.5,-1248.66C1438.51,-1220.51 1494.49,-1166.22 1527.53,-1134.18"/>
<polygon fill="black" stroke="black" points="1530.26,-1136.4 1535,-1126.92 1525.39,-1131.37 1530.26,-1136.4"/>
</g>
<!-- Brain: POST /message/single/incoming -->
<g id="node20" class="node">
<title>Brain: POST /message/single/incoming</title>
<path fill="lightblue" stroke="black" d="M1207.57,-1200.24C1207.57,-1200.24 938.57,-1200.24 938.57,-1200.24 932.57,-1200.24 926.57,-1194.24 926.57,-1188.24 926.57,-1188.24 926.57,-1176.24 926.57,-1176.24 926.57,-1170.24 932.57,-1164.24 938.57,-1164.24 938.57,-1164.24 1207.57,-1164.24 1207.57,-1164.24 1213.57,-1164.24 1219.57,-1170.24 1219.57,-1176.24 1219.57,-1176.24 1219.57,-1188.24 1219.57,-1188.24 1219.57,-1194.24 1213.57,-1200.24 1207.57,-1200.24"/>
<text text-anchor="middle" x="1073.07" y="-1178.54" font-family="Times,serif" font-size="14.00" fill="#080537">Brain: POST /message/single/incoming</text>
</g>
<!-- API: POST /v1/completions&#45;&gt;Brain: POST /message/single/incoming -->
<g id="edge2" class="edge">
<title>API: POST /v1/completions&#45;&gt;Brain: POST /message/single/incoming</title>
<path fill="none" stroke="black" d="M1172.1,-1292.64C1152.27,-1270.54 1118.64,-1233.04 1096.14,-1207.96"/>
<polygon fill="black" stroke="black" points="1098.54,-1205.4 1089.26,-1200.29 1093.33,-1210.07 1098.54,-1205.4"/>
</g>
<!-- Brain: DELETE /memory -->
<g id="node8" class="node">
<title>Brain: DELETE /memory</title>
<path fill="lightblue" stroke="black" d="M2049.34,-1295.98C2049.34,-1295.98 1880.34,-1295.98 1880.34,-1295.98 1874.34,-1295.98 1868.34,-1289.98 1868.34,-1283.98 1868.34,-1283.98 1868.34,-1271.98 1868.34,-1271.98 1868.34,-1265.98 1874.34,-1259.98 1880.34,-1259.98 1880.34,-1259.98 2049.34,-1259.98 2049.34,-1259.98 2055.34,-1259.98 2061.34,-1265.98 2061.34,-1271.98 2061.34,-1271.98 2061.34,-1283.98 2061.34,-1283.98 2061.34,-1289.98 2055.34,-1295.98 2049.34,-1295.98"/>
<text text-anchor="middle" x="1964.84" y="-1274.28" font-family="Times,serif" font-size="14.00" fill="#080537">Brain: DELETE /memory</text>
</g>
<!-- ChromaDB: DELETE /memory/MEM_ID -->
<g id="node22" class="node">
<title>ChromaDB: DELETE /memory/MEM_ID</title>
<path fill="lightblue" stroke="black" d="M2072.2,-1449.85C2072.2,-1449.85 1797.2,-1449.85 1797.2,-1449.85 1791.2,-1449.85 1785.2,-1443.85 1785.2,-1437.85 1785.2,-1437.85 1785.2,-1425.85 1785.2,-1425.85 1785.2,-1419.85 1791.2,-1413.85 1797.2,-1413.85 1797.2,-1413.85 2072.2,-1413.85 2072.2,-1413.85 2078.2,-1413.85 2084.2,-1419.85 2084.2,-1425.85 2084.2,-1425.85 2084.2,-1437.85 2084.2,-1437.85 2084.2,-1443.85 2078.2,-1449.85 2072.2,-1449.85"/>
<text text-anchor="middle" x="1934.7" y="-1428.15" font-family="Times,serif" font-size="14.00" fill="#080537">ChromaDB: DELETE /memory/MEM_ID</text>
</g>
<!-- Brain: DELETE /memory&#45;&gt;ChromaDB: DELETE /memory/MEM_ID -->
<g id="edge28" class="edge">
<title>Brain: DELETE /memory&#45;&gt;ChromaDB: DELETE /memory/MEM_ID</title>
<path fill="none" stroke="black" d="M1961.26,-1296.24C1956.05,-1322.84 1946.33,-1372.5 1940.2,-1403.78"/>
<polygon fill="black" stroke="black" points="1936.76,-1403.13 1938.27,-1413.62 1943.63,-1404.48 1936.76,-1403.13"/>
</g>
<!-- ChromaDB: GET /memory -->
<g id="node23" class="node">
<title>ChromaDB: GET /memory</title>
<path fill="lightblue" stroke="black" d="M2220.81,-1399.18C2220.81,-1399.18 2042.81,-1399.18 2042.81,-1399.18 2036.81,-1399.18 2030.81,-1393.18 2030.81,-1387.18 2030.81,-1387.18 2030.81,-1375.18 2030.81,-1375.18 2030.81,-1369.18 2036.81,-1363.18 2042.81,-1363.18 2042.81,-1363.18 2220.81,-1363.18 2220.81,-1363.18 2226.81,-1363.18 2232.81,-1369.18 2232.81,-1375.18 2232.81,-1375.18 2232.81,-1387.18 2232.81,-1387.18 2232.81,-1393.18 2226.81,-1399.18 2220.81,-1399.18"/>
<text text-anchor="middle" x="2131.81" y="-1377.48" font-family="Times,serif" font-size="14.00" fill="#080537">ChromaDB: GET /memory</text>
</g>
<!-- Brain: DELETE /memory&#45;&gt;ChromaDB: GET /memory -->
<g id="edge27" class="edge">
<title>Brain: DELETE /memory&#45;&gt;ChromaDB: GET /memory</title>
<path fill="none" stroke="black" d="M1994.3,-1296.19C2022.08,-1313.36 2063.84,-1339.17 2094.05,-1357.84"/>
<polygon fill="black" stroke="black" points="2092.29,-1360.87 2102.64,-1363.15 2095.97,-1354.91 2092.29,-1360.87"/>
</g>
<!-- Brain: DELETE /scheduler/job/JOB_ID -->
<g id="node9" class="node">
<title>Brain: DELETE /scheduler/job/JOB_ID</title>
<path fill="lightblue" stroke="black" d="M1027.03,-960C1027.03,-960 766.03,-960 766.03,-960 760.03,-960 754.03,-954 754.03,-948 754.03,-948 754.03,-936 754.03,-936 754.03,-930 760.03,-924 766.03,-924 766.03,-924 1027.03,-924 1027.03,-924 1033.03,-924 1039.03,-930 1039.03,-936 1039.03,-936 1039.03,-948 1039.03,-948 1039.03,-954 1033.03,-960 1027.03,-960"/>
<text text-anchor="middle" x="896.53" y="-938.3" font-family="Times,serif" font-size="14.00" fill="#080537">Brain: DELETE /scheduler/job/JOB_ID</text>
</g>
<!-- Scheduler: DELETE /jobs/JOB_ID -->
<g id="node46" class="node">
<title>Scheduler: DELETE /jobs/JOB_ID</title>
<path fill="lightblue" stroke="black" d="M734,-960C734,-960 507,-960 507,-960 501,-960 495,-954 495,-948 495,-948 495,-936 495,-936 495,-930 501,-924 507,-924 507,-924 734,-924 734,-924 740,-924 746,-930 746,-936 746,-936 746,-948 746,-948 746,-954 740,-960 734,-960"/>
<text text-anchor="middle" x="620.5" y="-938.3" font-family="Times,serif" font-size="14.00" fill="#080537">Scheduler: DELETE /jobs/JOB_ID</text>
</g>
<!-- Brain: DELETE /scheduler/job/JOB_ID&#45;&gt;Scheduler: DELETE /jobs/JOB_ID -->
<g id="edge14" class="edge">
<title>Brain: DELETE /scheduler/job/JOB_ID&#45;&gt;Scheduler: DELETE /jobs/JOB_ID</title>
<path fill="none" stroke="black" d="M753.66,-942C753.51,-942 753.35,-942 753.19,-942"/>
<polygon fill="black" stroke="black" points="756.17,-938.5 746.17,-942 756.17,-945.5 756.17,-938.5"/>
</g>
<!-- Brain: GET /memory -->
<g id="node10" class="node">
<title>Brain: GET /memory</title>
<path fill="lightblue" stroke="black" d="M2329.72,-1493.1C2329.72,-1493.1 2190.72,-1493.1 2190.72,-1493.1 2184.72,-1493.1 2178.72,-1487.1 2178.72,-1481.1 2178.72,-1481.1 2178.72,-1469.1 2178.72,-1469.1 2178.72,-1463.1 2184.72,-1457.1 2190.72,-1457.1 2190.72,-1457.1 2329.72,-1457.1 2329.72,-1457.1 2335.72,-1457.1 2341.72,-1463.1 2341.72,-1469.1 2341.72,-1469.1 2341.72,-1481.1 2341.72,-1481.1 2341.72,-1487.1 2335.72,-1493.1 2329.72,-1493.1"/>
<text text-anchor="middle" x="2260.22" y="-1471.4" font-family="Times,serif" font-size="14.00" fill="#080537">Brain: GET /memory</text>
</g>
<!-- Brain: GET /memory&#45;&gt;ChromaDB: GET /memory -->
<g id="edge22" class="edge">
<title>Brain: GET /memory&#45;&gt;ChromaDB: GET /memory</title>
<path fill="none" stroke="black" d="M2235.46,-1456.99C2215.3,-1442.24 2186.66,-1421.3 2164.6,-1405.16"/>
<polygon fill="black" stroke="black" points="2166.63,-1402.31 2156.49,-1399.23 2162.5,-1407.96 2166.63,-1402.31"/>
</g>
<!-- Brain: GET /memory/semantic -->
<g id="node11" class="node">
<title>Brain: GET /memory/semantic</title>
<path fill="lightblue" stroke="black" d="M994.03,-729C994.03,-729 786.03,-729 786.03,-729 780.03,-729 774.03,-723 774.03,-717 774.03,-717 774.03,-705 774.03,-705 774.03,-699 780.03,-693 786.03,-693 786.03,-693 994.03,-693 994.03,-693 1000.03,-693 1006.03,-699 1006.03,-705 1006.03,-705 1006.03,-717 1006.03,-717 1006.03,-723 1000.03,-729 994.03,-729"/>
<text text-anchor="middle" x="890.03" y="-707.3" font-family="Times,serif" font-size="14.00" fill="#080537">Brain: GET /memory/semantic</text>
</g>
<!-- ChromaDB: GET /memory/semantic -->
<g id="node26" class="node">
<title>ChromaDB: GET /memory/semantic</title>
<path fill="lightblue" stroke="black" d="M754,-729C754,-729 507,-729 507,-729 501,-729 495,-723 495,-717 495,-717 495,-705 495,-705 495,-699 501,-693 507,-693 507,-693 754,-693 754,-693 760,-693 766,-699 766,-705 766,-705 766,-717 766,-717 766,-723 760,-729 754,-729"/>
<text text-anchor="middle" x="630.5" y="-707.3" font-family="Times,serif" font-size="14.00" fill="#080537">ChromaDB: GET /memory/semantic</text>
</g>
<!-- Brain: GET /memory/semantic&#45;&gt;ChromaDB: GET /memory/semantic -->
<g id="edge23" class="edge">
<title>Brain: GET /memory/semantic&#45;&gt;ChromaDB: GET /memory/semantic</title>
<path fill="none" stroke="black" d="M773.93,-711C773.77,-711 773.61,-711 773.45,-711"/>
<polygon fill="black" stroke="black" points="776.22,-707.5 766.22,-711 776.22,-714.5 776.22,-707.5"/>
</g>
<!-- Brain: GET /model/MODEL_NAME -->
<g id="node13" class="node">
<title>Brain: GET /model/MODEL_NAME</title>
<path fill="lightblue" stroke="black" d="M2287.87,-234C2287.87,-234 2049.87,-234 2049.87,-234 2043.87,-234 2037.87,-228 2037.87,-222 2037.87,-222 2037.87,-210 2037.87,-210 2037.87,-204 2043.87,-198 2049.87,-198 2049.87,-198 2287.87,-198 2287.87,-198 2293.87,-198 2299.87,-204 2299.87,-210 2299.87,-210 2299.87,-222 2299.87,-222 2299.87,-228 2293.87,-234 2287.87,-234"/>
<text text-anchor="middle" x="2168.87" y="-212.3" font-family="Times,serif" font-size="14.00" fill="#080537">Brain: GET /model/MODEL_NAME</text>
</g>
<!-- Proxy: GET /api/models/MODEL_NAME -->
<g id="node42" class="node">
<title>Proxy: GET /api/models/MODEL_NAME</title>
<path fill="lightblue" stroke="black" d="M2017.84,-234C2017.84,-234 1743.84,-234 1743.84,-234 1737.84,-234 1731.84,-228 1731.84,-222 1731.84,-222 1731.84,-210 1731.84,-210 1731.84,-204 1737.84,-198 1743.84,-198 1743.84,-198 2017.84,-198 2017.84,-198 2023.84,-198 2029.84,-204 2029.84,-210 2029.84,-210 2029.84,-222 2029.84,-222 2029.84,-228 2023.84,-234 2017.84,-234"/>
<text text-anchor="middle" x="1880.84" y="-212.3" font-family="Times,serif" font-size="14.00" fill="#080537">Proxy: GET /api/models/MODEL_NAME</text>
</g>
<!-- Brain: GET /model/MODEL_NAME&#45;&gt;Proxy: GET /api/models/MODEL_NAME -->
<g id="edge11" class="edge">
<title>Brain: GET /model/MODEL_NAME&#45;&gt;Proxy: GET /api/models/MODEL_NAME</title>
<path fill="none" stroke="black" d="M2037.5,-216C2037.34,-216 2037.18,-216 2037.02,-216"/>
<polygon fill="black" stroke="black" points="2039.92,-212.5 2029.92,-216 2039.92,-219.5 2039.92,-212.5"/>
</g>
<!-- Brain: GET /models -->
<g id="node14" class="node">
<title>Brain: GET /models</title>
<path fill="lightblue" stroke="black" d="M1034,-234C1034,-234 903,-234 903,-234 897,-234 891,-228 891,-222 891,-222 891,-210 891,-210 891,-204 897,-198 903,-198 903,-198 1034,-198 1034,-198 1040,-198 1046,-204 1046,-210 1046,-210 1046,-222 1046,-222 1046,-228 1040,-234 1034,-234"/>
<text text-anchor="middle" x="968.5" y="-212.3" font-family="Times,serif" font-size="14.00" fill="#080537">Brain: GET /models</text>
</g>
<!-- Proxy: GET /api/models -->
<g id="node41" class="node">
<title>Proxy: GET /api/models</title>
<path fill="lightblue" stroke="black" d="M1321.05,-234C1321.05,-234 1161.05,-234 1161.05,-234 1155.05,-234 1149.05,-228 1149.05,-222 1149.05,-222 1149.05,-210 1149.05,-210 1149.05,-204 1155.05,-198 1161.05,-198 1161.05,-198 1321.05,-198 1321.05,-198 1327.05,-198 1333.05,-204 1333.05,-210 1333.05,-210 1333.05,-222 1333.05,-222 1333.05,-228 1327.05,-234 1321.05,-234"/>
<text text-anchor="middle" x="1241.05" y="-212.3" font-family="Times,serif" font-size="14.00" fill="#080537">Proxy: GET /api/models</text>
</g>
<!-- Brain: GET /models&#45;&gt;Proxy: GET /api/models -->
<g id="edge10" class="edge">
<title>Brain: GET /models&#45;&gt;Proxy: GET /api/models</title>
<path fill="none" stroke="black" d="M1046.24,-216C1074.93,-216 1107.91,-216 1138.47,-216"/>
<polygon fill="black" stroke="black" points="1138.73,-219.5 1148.73,-216 1138.73,-212.5 1138.73,-219.5"/>
</g>
<!-- Brain: GET /scheduler/job -->
<g id="node15" class="node">
<title>Brain: GET /scheduler/job</title>
<path fill="lightblue" stroke="black" d="M858.02,-861C858.02,-861 682.02,-861 682.02,-861 676.02,-861 670.02,-855 670.02,-849 670.02,-849 670.02,-837 670.02,-837 670.02,-831 676.02,-825 682.02,-825 682.02,-825 858.02,-825 858.02,-825 864.02,-825 870.02,-831 870.02,-837 870.02,-837 870.02,-849 870.02,-849 870.02,-855 864.02,-861 858.02,-861"/>
<text text-anchor="middle" x="770.02" y="-839.3" font-family="Times,serif" font-size="14.00" fill="#080537">Brain: GET /scheduler/job</text>
</g>
<!-- Scheduler: GET /jobs -->
<g id="node47" class="node">
<title>Scheduler: GET /jobs</title>
<path fill="lightblue" stroke="black" d="M650,-861C650,-861 507,-861 507,-861 501,-861 495,-855 495,-849 495,-849 495,-837 495,-837 495,-831 501,-825 507,-825 507,-825 650,-825 650,-825 656,-825 662,-831 662,-837 662,-837 662,-849 662,-849 662,-855 656,-861 650,-861"/>
<text text-anchor="middle" x="578.5" y="-839.3" font-family="Times,serif" font-size="14.00" fill="#080537">Scheduler: GET /jobs</text>
</g>
<!-- Brain: GET /scheduler/job&#45;&gt;Scheduler: GET /jobs -->
<g id="edge13" class="edge">
<title>Brain: GET /scheduler/job&#45;&gt;Scheduler: GET /jobs</title>
<path fill="none" stroke="black" d="M669.77,-843C669.61,-843 669.46,-843 669.3,-843"/>
<polygon fill="black" stroke="black" points="672.19,-839.5 662.19,-843 672.19,-846.5 672.19,-839.5"/>
</g>
<!-- Brain: POST /embedding -->
<g id="node16" class="node">
<title>Brain: POST /embedding</title>
<path fill="lightblue" stroke="black" d="M2397.79,-756.41C2397.79,-756.41 2228.79,-756.41 2228.79,-756.41 2222.79,-756.41 2216.79,-750.41 2216.79,-744.41 2216.79,-744.41 2216.79,-732.41 2216.79,-732.41 2216.79,-726.41 2222.79,-720.41 2228.79,-720.41 2228.79,-720.41 2397.79,-720.41 2397.79,-720.41 2403.79,-720.41 2409.79,-726.41 2409.79,-732.41 2409.79,-732.41 2409.79,-744.41 2409.79,-744.41 2409.79,-750.41 2403.79,-756.41 2397.79,-756.41"/>
<text text-anchor="middle" x="2313.29" y="-734.71" font-family="Times,serif" font-size="14.00" fill="#080537">Brain: POST /embedding</text>
</g>
<!-- ChromaDB: POST /embedding -->
<g id="node28" class="node">
<title>ChromaDB: POST /embedding</title>
<path fill="lightblue" stroke="black" d="M2282.84,-841.1C2282.84,-841.1 2074.84,-841.1 2074.84,-841.1 2068.84,-841.1 2062.84,-835.1 2062.84,-829.1 2062.84,-829.1 2062.84,-817.1 2062.84,-817.1 2062.84,-811.1 2068.84,-805.1 2074.84,-805.1 2074.84,-805.1 2282.84,-805.1 2282.84,-805.1 2288.84,-805.1 2294.84,-811.1 2294.84,-817.1 2294.84,-817.1 2294.84,-829.1 2294.84,-829.1 2294.84,-835.1 2288.84,-841.1 2282.84,-841.1"/>
<text text-anchor="middle" x="2178.84" y="-819.4" font-family="Times,serif" font-size="14.00" fill="#080537">ChromaDB: POST /embedding</text>
</g>
<!-- Brain: POST /embedding&#45;&gt;ChromaDB: POST /embedding -->
<g id="edge9" class="edge">
<title>Brain: POST /embedding&#45;&gt;ChromaDB: POST /embedding</title>
<path fill="none" stroke="black" d="M2284.45,-756.58C2264.51,-769.13 2237.8,-785.96 2216.23,-799.55"/>
<polygon fill="black" stroke="black" points="2214.23,-796.67 2207.63,-804.96 2217.96,-802.59 2214.23,-796.67"/>
</g>
<!-- Brain: POST /memory -->
<g id="node17" class="node">
<title>Brain: POST /memory</title>
<path fill="lightblue" stroke="black" d="M2072.61,-928.79C2072.61,-928.79 1924.61,-928.79 1924.61,-928.79 1918.61,-928.79 1912.61,-922.79 1912.61,-916.79 1912.61,-916.79 1912.61,-904.79 1912.61,-904.79 1912.61,-898.79 1918.61,-892.79 1924.61,-892.79 1924.61,-892.79 2072.61,-892.79 2072.61,-892.79 2078.61,-892.79 2084.61,-898.79 2084.61,-904.79 2084.61,-904.79 2084.61,-916.79 2084.61,-916.79 2084.61,-922.79 2078.61,-928.79 2072.61,-928.79"/>
<text text-anchor="middle" x="1998.61" y="-907.09" font-family="Times,serif" font-size="14.00" fill="#080537">Brain: POST /memory</text>
</g>
<!-- Brain: POST /memory&#45;&gt;ChromaDB: POST /embedding -->
<g id="edge25" class="edge">
<title>Brain: POST /memory&#45;&gt;ChromaDB: POST /embedding</title>
<path fill="none" stroke="black" d="M2035.96,-892.62C2063.99,-878.98 2102.54,-860.22 2132.53,-845.63"/>
<polygon fill="black" stroke="black" points="2134.08,-848.77 2141.54,-841.24 2131.02,-842.47 2134.08,-848.77"/>
</g>
<!-- ChromaDB: POST /memory -->
<g id="node29" class="node">
<title>ChromaDB: POST /memory</title>
<path fill="lightblue" stroke="black" d="M2084.05,-764.93C2084.05,-764.93 1897.05,-764.93 1897.05,-764.93 1891.05,-764.93 1885.05,-758.93 1885.05,-752.93 1885.05,-752.93 1885.05,-740.93 1885.05,-740.93 1885.05,-734.93 1891.05,-728.93 1897.05,-728.93 1897.05,-728.93 2084.05,-728.93 2084.05,-728.93 2090.05,-728.93 2096.05,-734.93 2096.05,-740.93 2096.05,-740.93 2096.05,-752.93 2096.05,-752.93 2096.05,-758.93 2090.05,-764.93 2084.05,-764.93"/>
<text text-anchor="middle" x="1990.55" y="-743.23" font-family="Times,serif" font-size="14.00" fill="#080537">ChromaDB: POST /memory</text>
</g>
<!-- Brain: POST /memory&#45;&gt;ChromaDB: POST /memory -->
<g id="edge26" class="edge">
<title>Brain: POST /memory&#45;&gt;ChromaDB: POST /memory</title>
<path fill="none" stroke="black" d="M1997.72,-892.63C1996.32,-864.21 1993.61,-808.99 1991.95,-775.3"/>
<polygon fill="black" stroke="black" points="1995.44,-774.99 1991.45,-765.17 1988.45,-775.33 1995.44,-774.99"/>
</g>
<!-- Brain: GET /mode -->
<g id="node64" class="node">
<title>Brain: GET /mode</title>
<path fill="lightblue" stroke="black" d="M2027.13,-1054.15C2027.13,-1054.15 1908.13,-1054.15 1908.13,-1054.15 1902.13,-1054.15 1896.13,-1048.15 1896.13,-1042.15 1896.13,-1042.15 1896.13,-1030.15 1896.13,-1030.15 1896.13,-1024.15 1902.13,-1018.15 1908.13,-1018.15 1908.13,-1018.15 2027.13,-1018.15 2027.13,-1018.15 2033.13,-1018.15 2039.13,-1024.15 2039.13,-1030.15 2039.13,-1030.15 2039.13,-1042.15 2039.13,-1042.15 2039.13,-1048.15 2033.13,-1054.15 2027.13,-1054.15"/>
<text text-anchor="middle" x="1967.63" y="-1032.45" font-family="Times,serif" font-size="14.00" fill="#080537">Brain: GET /mode</text>
</g>
<!-- Brain: POST /memory&#45;&gt;Brain: GET /mode -->
<g id="edge24" class="edge">
<title>Brain: POST /memory&#45;&gt;Brain: GET /mode</title>
<path fill="none" stroke="black" d="M1994.11,-929.02C1988.99,-949.72 1980.58,-983.76 1974.61,-1007.91"/>
<polygon fill="black" stroke="black" points="1971.14,-1007.36 1972.14,-1017.9 1977.94,-1009.03 1971.14,-1007.36"/>
</g>
<!-- Brain: POST /message/incoming -->
<g id="node18" class="node">
<title>Brain: POST /message/incoming</title>
<path fill="lightblue" stroke="black" d="M1479.63,-619.23C1479.63,-619.23 1258.63,-619.23 1258.63,-619.23 1252.63,-619.23 1246.63,-613.23 1246.63,-607.23 1246.63,-607.23 1246.63,-595.23 1246.63,-595.23 1246.63,-589.23 1252.63,-583.23 1258.63,-583.23 1258.63,-583.23 1479.63,-583.23 1479.63,-583.23 1485.63,-583.23 1491.63,-589.23 1491.63,-595.23 1491.63,-595.23 1491.63,-607.23 1491.63,-607.23 1491.63,-613.23 1485.63,-619.23 1479.63,-619.23"/>
<text text-anchor="middle" x="1369.13" y="-597.53" font-family="Times,serif" font-size="14.00" fill="#080537">Brain: POST /message/incoming</text>
</g>
<!-- Contacts: GET /search -->
<g id="node33" class="node">
<title>Contacts: GET /search</title>
<path fill="lightblue" stroke="black" d="M1745.45,-619.24C1745.45,-619.24 1593.45,-619.24 1593.45,-619.24 1587.45,-619.24 1581.45,-613.24 1581.45,-607.24 1581.45,-607.24 1581.45,-595.24 1581.45,-595.24 1581.45,-589.24 1587.45,-583.24 1593.45,-583.24 1593.45,-583.24 1745.45,-583.24 1745.45,-583.24 1751.45,-583.24 1757.45,-589.24 1757.45,-595.24 1757.45,-595.24 1757.45,-607.24 1757.45,-607.24 1757.45,-613.24 1751.45,-619.24 1745.45,-619.24"/>
<text text-anchor="middle" x="1669.45" y="-597.54" font-family="Times,serif" font-size="14.00" fill="#080537">Contacts: GET /search</text>
</g>
<!-- Brain: POST /message/incoming&#45;&gt;Contacts: GET /search -->
<g id="edge15" class="edge">
<title>Brain: POST /message/incoming&#45;&gt;Contacts: GET /search</title>
<path fill="none" stroke="black" d="M1491.72,-601.23C1518.09,-601.23 1545.64,-601.23 1570.95,-601.23"/>
<polygon fill="black" stroke="black" points="1571.28,-604.73 1581.28,-601.23 1571.28,-597.73 1571.28,-604.73"/>
</g>
<!-- Contacts: POST /contact -->
<g id="node35" class="node">
<title>Contacts: POST /contact</title>
<path fill="lightblue" stroke="black" d="M1510.49,-905.46C1510.49,-905.46 1344.49,-905.46 1344.49,-905.46 1338.49,-905.46 1332.49,-899.46 1332.49,-893.46 1332.49,-893.46 1332.49,-881.46 1332.49,-881.46 1332.49,-875.46 1338.49,-869.46 1344.49,-869.46 1344.49,-869.46 1510.49,-869.46 1510.49,-869.46 1516.49,-869.46 1522.49,-875.46 1522.49,-881.46 1522.49,-881.46 1522.49,-893.46 1522.49,-893.46 1522.49,-899.46 1516.49,-905.46 1510.49,-905.46"/>
<text text-anchor="middle" x="1427.49" y="-883.76" font-family="Times,serif" font-size="14.00" fill="#080537">Contacts: POST /contact</text>
</g>
<!-- Brain: POST /message/incoming&#45;&gt;Contacts: POST /contact -->
<g id="edge16" class="edge">
<title>Brain: POST /message/incoming&#45;&gt;Contacts: POST /contact</title>
<path fill="none" stroke="black" d="M1372.87,-619.57C1382.79,-668.24 1409.84,-800.92 1421.74,-859.28"/>
<polygon fill="black" stroke="black" points="1418.35,-860.17 1423.78,-869.27 1425.21,-858.78 1418.35,-860.17"/>
<text text-anchor="middle" x="1356.79" y="-748.06" font-family="Times,serif" font-size="14.00">if not found</text>
</g>
<!-- Summarize: POST /buffer -->
<g id="node60" class="node">
<title>Summarize: POST /buffer</title>
<path fill="lightblue" stroke="black" d="M1513.76,-333C1513.76,-333 1339.76,-333 1339.76,-333 1333.76,-333 1327.76,-327 1327.76,-321 1327.76,-321 1327.76,-309 1327.76,-309 1327.76,-303 1333.76,-297 1339.76,-297 1339.76,-297 1513.76,-297 1513.76,-297 1519.76,-297 1525.76,-303 1525.76,-309 1525.76,-309 1525.76,-321 1525.76,-321 1525.76,-327 1519.76,-333 1513.76,-333"/>
<text text-anchor="middle" x="1426.76" y="-311.3" font-family="Times,serif" font-size="14.00" fill="#080537">Summarize: POST /buffer</text>
</g>
<!-- Brain: POST /message/incoming&#45;&gt;Summarize: POST /buffer -->
<g id="edge17" class="edge">
<title>Brain: POST /message/incoming&#45;&gt;Summarize: POST /buffer</title>
<path fill="none" stroke="black" d="M1372.82,-582.89C1382.62,-534.22 1409.33,-401.54 1421.08,-343.18"/>
<polygon fill="black" stroke="black" points="1424.55,-343.68 1423.1,-333.19 1417.69,-342.3 1424.55,-343.68"/>
</g>
<!-- Intents: POST /intents -->
<g id="node40" class="node">
<title>Intents: POST /intents</title>
<path fill="lightblue" stroke="black" d="M1905.03,-1100.16C1905.03,-1100.16 1753.03,-1100.16 1753.03,-1100.16 1747.03,-1100.16 1741.03,-1094.16 1741.03,-1088.16 1741.03,-1088.16 1741.03,-1076.16 1741.03,-1076.16 1741.03,-1070.16 1747.03,-1064.16 1753.03,-1064.16 1753.03,-1064.16 1905.03,-1064.16 1905.03,-1064.16 1911.03,-1064.16 1917.03,-1070.16 1917.03,-1076.16 1917.03,-1076.16 1917.03,-1088.16 1917.03,-1088.16 1917.03,-1094.16 1911.03,-1100.16 1905.03,-1100.16"/>
<text text-anchor="middle" x="1829.03" y="-1078.46" font-family="Times,serif" font-size="14.00" fill="#080537">Intents: POST /intents</text>
</g>
<!-- Brain: POST /message/multiturn/incoming&#45;&gt;Intents: POST /intents -->
<g id="edge19" class="edge">
<title>Brain: POST /message/multiturn/incoming&#45;&gt;Intents: POST /intents</title>
<path fill="none" stroke="black" d="M1712.92,-1100.09C1718.89,-1099.48 1724.8,-1098.85 1730.62,-1098.21"/>
<polygon fill="black" stroke="black" points="1731.42,-1101.64 1740.97,-1097.06 1730.64,-1094.69 1731.42,-1101.64"/>
<text text-anchor="middle" x="1784.29" y="-1102.43" font-family="Times,serif" font-size="14.00">intent detection</text>
</g>
<!-- Brain: POST /message/multiturn/incoming&#45;&gt;Intents: POST /intents -->
<g id="edge21" class="edge">
<title>Brain: POST /message/multiturn/incoming&#45;&gt;Intents: POST /intents</title>
<path fill="none" stroke="black" d="M1670.63,-1090.75C1690.66,-1088.69 1711.28,-1086.76 1730.76,-1085.14"/>
<polygon fill="black" stroke="black" points="1731.14,-1088.62 1740.83,-1084.32 1730.57,-1081.64 1731.14,-1088.62"/>
<text text-anchor="middle" x="1614.62" y="-1076.14" font-family="Times,serif" font-size="14.00">response post&#45;processing</text>
</g>
<!-- Proxy: POST /from/api/multiturn -->
<g id="node44" class="node">
<title>Proxy: POST /from/api/multiturn</title>
<path fill="lightblue" stroke="black" d="M1486.08,-992.95C1486.08,-992.95 1262.08,-992.95 1262.08,-992.95 1256.08,-992.95 1250.08,-986.95 1250.08,-980.95 1250.08,-980.95 1250.08,-968.95 1250.08,-968.95 1250.08,-962.95 1256.08,-956.95 1262.08,-956.95 1262.08,-956.95 1486.08,-956.95 1486.08,-956.95 1492.08,-956.95 1498.08,-962.95 1498.08,-968.95 1498.08,-968.95 1498.08,-980.95 1498.08,-980.95 1498.08,-986.95 1492.08,-992.95 1486.08,-992.95"/>
<text text-anchor="middle" x="1374.08" y="-971.25" font-family="Times,serif" font-size="14.00" fill="#080537">Proxy: POST /from/api/multiturn</text>
</g>
<!-- Brain: POST /message/multiturn/incoming&#45;&gt;Proxy: POST /from/api/multiturn -->
<g id="edge20" class="edge">
<title>Brain: POST /message/multiturn/incoming&#45;&gt;Proxy: POST /from/api/multiturn</title>
<path fill="none" stroke="black" d="M1529.5,-1090.72C1497.76,-1067.08 1441.99,-1025.53 1406.6,-999.17"/>
<polygon fill="black" stroke="black" points="1408.61,-996.31 1398.5,-993.14 1404.43,-1001.92 1408.61,-996.31"/>
</g>
<!-- Proxy: POST /from/api/completions -->
<g id="node43" class="node">
<title>Proxy: POST /from/api/completions</title>
<path fill="lightblue" stroke="black" d="M1196.15,-1034.59C1196.15,-1034.59 954.15,-1034.59 954.15,-1034.59 948.15,-1034.59 942.15,-1028.59 942.15,-1022.59 942.15,-1022.59 942.15,-1010.59 942.15,-1010.59 942.15,-1004.59 948.15,-998.59 954.15,-998.59 954.15,-998.59 1196.15,-998.59 1196.15,-998.59 1202.15,-998.59 1208.15,-1004.59 1208.15,-1010.59 1208.15,-1010.59 1208.15,-1022.59 1208.15,-1022.59 1208.15,-1028.59 1202.15,-1034.59 1196.15,-1034.59"/>
<text text-anchor="middle" x="1075.15" y="-1012.89" font-family="Times,serif" font-size="14.00" fill="#080537">Proxy: POST /from/api/completions</text>
</g>
<!-- Brain: POST /message/single/incoming&#45;&gt;Proxy: POST /from/api/completions -->
<g id="edge18" class="edge">
<title>Brain: POST /message/single/incoming&#45;&gt;Proxy: POST /from/api/completions</title>
<path fill="none" stroke="black" d="M1073.29,-1164.2C1073.66,-1135.45 1074.37,-1079 1074.8,-1044.85"/>
<polygon fill="black" stroke="black" points="1078.3,-1044.66 1074.93,-1034.61 1071.3,-1044.57 1078.3,-1044.66"/>
</g>
<!-- Brain: POST /scheduler/job -->
<g id="node21" class="node">
<title>Brain: POST /scheduler/job</title>
<path fill="lightblue" stroke="black" d="M1260.64,-366C1260.64,-366 1075.64,-366 1075.64,-366 1069.64,-366 1063.64,-360 1063.64,-354 1063.64,-354 1063.64,-342 1063.64,-342 1063.64,-336 1069.64,-330 1075.64,-330 1075.64,-330 1260.64,-330 1260.64,-330 1266.64,-330 1272.64,-336 1272.64,-342 1272.64,-342 1272.64,-354 1272.64,-354 1272.64,-360 1266.64,-366 1260.64,-366"/>
<text text-anchor="middle" x="1168.14" y="-344.3" font-family="Times,serif" font-size="14.00" fill="#080537">Brain: POST /scheduler/job</text>
</g>
<!-- Scheduler: POST /jobs -->
<g id="node48" class="node">
<title>Scheduler: POST /jobs</title>
<path fill="lightblue" stroke="black" d="M1043.62,-366C1043.62,-366 891.62,-366 891.62,-366 885.62,-366 879.62,-360 879.62,-354 879.62,-354 879.62,-342 879.62,-342 879.62,-336 885.62,-330 891.62,-330 891.62,-330 1043.62,-330 1043.62,-330 1049.62,-330 1055.62,-336 1055.62,-342 1055.62,-342 1055.62,-354 1055.62,-354 1055.62,-360 1049.62,-366 1043.62,-366"/>
<text text-anchor="middle" x="967.62" y="-344.3" font-family="Times,serif" font-size="14.00" fill="#080537">Scheduler: POST /jobs</text>
</g>
<!-- Brain: POST /scheduler/job&#45;&gt;Scheduler: POST /jobs -->
<g id="edge12" class="edge">
<title>Brain: POST /scheduler/job&#45;&gt;Scheduler: POST /jobs</title>
<path fill="none" stroke="black" d="M1063.47,-348C1063.31,-348 1063.15,-348 1062.99,-348"/>
<polygon fill="black" stroke="black" points="1065.8,-344.5 1055.8,-348 1065.8,-351.5 1065.8,-344.5"/>
</g>
<!-- ChromaDB: GET /memory/id/MEM_ID -->
<g id="node24" class="node">
<title>ChromaDB: GET /memory/id/MEM_ID</title>
<path fill="lightblue" stroke="black" d="M1166,-135C1166,-135 903,-135 903,-135 897,-135 891,-129 891,-123 891,-123 891,-111 891,-111 891,-105 897,-99 903,-99 903,-99 1166,-99 1166,-99 1172,-99 1178,-105 1178,-111 1178,-111 1178,-123 1178,-123 1178,-129 1172,-135 1166,-135"/>
<text text-anchor="middle" x="1034.5" y="-113.3" font-family="Times,serif" font-size="14.00" fill="#080537">ChromaDB: GET /memory/id/MEM_ID</text>
</g>
<!-- ChromaDB: GET /memory/search -->
<g id="node25" class="node">
<title>ChromaDB: GET /memory/search</title>
<path fill="lightblue" stroke="black" d="M572,-432C572,-432 342,-432 342,-432 336,-432 330,-426 330,-420 330,-420 330,-408 330,-408 330,-402 336,-396 342,-396 342,-396 572,-396 572,-396 578,-396 584,-402 584,-408 584,-408 584,-420 584,-420 584,-426 578,-432 572,-432"/>
<text text-anchor="middle" x="457" y="-410.3" font-family="Times,serif" font-size="14.00" fill="#080537">ChromaDB: GET /memory/search</text>
</g>
<!-- ChromaDB: PATCH /memory/MEM_ID -->
<g id="node27" class="node">
<title>ChromaDB: PATCH /memory/MEM_ID</title>
<path fill="lightblue" stroke="black" d="M1496,-135C1496,-135 1233,-135 1233,-135 1227,-135 1221,-129 1221,-123 1221,-123 1221,-111 1221,-111 1221,-105 1227,-99 1233,-99 1233,-99 1496,-99 1496,-99 1502,-99 1508,-105 1508,-111 1508,-111 1508,-123 1508,-123 1508,-129 1502,-135 1496,-135"/>
<text text-anchor="middle" x="1364.5" y="-113.3" font-family="Times,serif" font-size="14.00" fill="#080537">ChromaDB: PATCH /memory/MEM_ID</text>
</g>
<!-- ChromaDB: PUT /memory/MEM_ID -->
<g id="node30" class="node">
<title>ChromaDB: PUT /memory/MEM_ID</title>
<path fill="lightblue" stroke="black" d="M1510,-36C1510,-36 1266,-36 1266,-36 1260,-36 1254,-30 1254,-24 1254,-24 1254,-12 1254,-12 1254,-6 1260,0 1266,0 1266,0 1510,0 1510,0 1516,0 1522,-6 1522,-12 1522,-12 1522,-24 1522,-24 1522,-30 1516,-36 1510,-36"/>
<text text-anchor="middle" x="1388" y="-14.3" font-family="Times,serif" font-size="14.00" fill="#080537">ChromaDB: PUT /memory/MEM_ID</text>
</g>
<!-- Contacts: DELETE /contact/CONTACT_ID -->
<g id="node31" class="node">
<title>Contacts: DELETE /contact/CONTACT_ID</title>
<path fill="lightblue" stroke="black" d="M859,-1158C859,-1158 573,-1158 573,-1158 567,-1158 561,-1152 561,-1146 561,-1146 561,-1134 561,-1134 561,-1128 567,-1122 573,-1122 573,-1122 859,-1122 859,-1122 865,-1122 871,-1128 871,-1134 871,-1134 871,-1146 871,-1146 871,-1152 865,-1158 859,-1158"/>
<text text-anchor="middle" x="716" y="-1136.3" font-family="Times,serif" font-size="14.00" fill="#080537">Contacts: DELETE /contact/CONTACT_ID</text>
</g>
<!-- Contacts: GET /contacts -->
<g id="node32" class="node">
<title>Contacts: GET /contacts</title>
<path fill="lightblue" stroke="black" d="M506,-1158C506,-1158 342,-1158 342,-1158 336,-1158 330,-1152 330,-1146 330,-1146 330,-1134 330,-1134 330,-1128 336,-1122 342,-1122 342,-1122 506,-1122 506,-1122 512,-1122 518,-1128 518,-1134 518,-1134 518,-1146 518,-1146 518,-1152 512,-1158 506,-1158"/>
<text text-anchor="middle" x="424" y="-1136.3" font-family="Times,serif" font-size="14.00" fill="#080537">Contacts: GET /contacts</text>
</g>
<!-- Contacts: PATCH /contact/CONTACT_ID -->
<g id="node34" class="node">
<title>Contacts: PATCH /contact/CONTACT_ID</title>
<path fill="lightblue" stroke="black" d="M616,-69C616,-69 342,-69 342,-69 336,-69 330,-63 330,-57 330,-57 330,-45 330,-45 330,-39 336,-33 342,-33 342,-33 616,-33 616,-33 622,-33 628,-39 628,-45 628,-45 628,-57 628,-57 628,-63 622,-69 616,-69"/>
<text text-anchor="middle" x="479" y="-47.3" font-family="Times,serif" font-size="14.00" fill="#080537">Contacts: PATCH /contact/CONTACT_ID</text>
</g>
<!-- Contacts: PUT /contact/CONTACT_ID -->
<g id="node36" class="node">
<title>Contacts: PUT /contact/CONTACT_ID</title>
<path fill="lightblue" stroke="black" d="M1752,-432C1752,-432 1497,-432 1497,-432 1491,-432 1485,-426 1485,-420 1485,-420 1485,-408 1485,-408 1485,-402 1491,-396 1497,-396 1497,-396 1752,-396 1752,-396 1758,-396 1764,-402 1764,-408 1764,-408 1764,-420 1764,-420 1764,-426 1758,-432 1752,-432"/>
<text text-anchor="middle" x="1624.5" y="-410.3" font-family="Times,serif" font-size="14.00" fill="#080537">Contacts: PUT /contact/CONTACT_ID</text>
</g>
<!-- iMessage: POST /imessage/recv -->
<g id="node37" class="node">
<title>iMessage: POST /imessage/recv</title>
<path fill="lightblue" stroke="black" d="M1137.73,-619.83C1137.73,-619.83 917.73,-619.83 917.73,-619.83 911.73,-619.83 905.73,-613.83 905.73,-607.83 905.73,-607.83 905.73,-595.83 905.73,-595.83 905.73,-589.83 911.73,-583.83 917.73,-583.83 917.73,-583.83 1137.73,-583.83 1137.73,-583.83 1143.73,-583.83 1149.73,-589.83 1149.73,-595.83 1149.73,-595.83 1149.73,-607.83 1149.73,-607.83 1149.73,-613.83 1143.73,-619.83 1137.73,-619.83"/>
<text text-anchor="middle" x="1027.73" y="-598.13" font-family="Times,serif" font-size="14.00" fill="#080537">iMessage: POST /imessage/recv</text>
</g>
<!-- iMessage: POST /imessage/recv&#45;&gt;Brain: POST /message/incoming -->
<g id="edge31" class="edge">
<title>iMessage: POST /imessage/recv&#45;&gt;Brain: POST /message/incoming</title>
<path fill="none" stroke="black" d="M1150.02,-601.62C1178.09,-601.57 1208.06,-601.51 1236.54,-601.46"/>
<polygon fill="black" stroke="black" points="1236.55,-604.96 1246.55,-601.45 1236.54,-597.96 1236.55,-604.96"/>
</g>
<!-- BlueBubbles: POST /api/v1/message/text -->
<g id="node65" class="node">
<title>BlueBubbles: POST /api/v1/message/text</title>
<path fill="lightblue" stroke="black" d="M851.4,-619.98C851.4,-619.98 567.4,-619.98 567.4,-619.98 561.4,-619.98 555.4,-613.98 555.4,-607.98 555.4,-607.98 555.4,-595.98 555.4,-595.98 555.4,-589.98 561.4,-583.98 567.4,-583.98 567.4,-583.98 851.4,-583.98 851.4,-583.98 857.4,-583.98 863.4,-589.98 863.4,-595.98 863.4,-595.98 863.4,-607.98 863.4,-607.98 863.4,-613.98 857.4,-619.98 851.4,-619.98"/>
<text text-anchor="middle" x="709.4" y="-598.28" font-family="Times,serif" font-size="14.00" fill="#080537">BlueBubbles: POST /api/v1/message/text</text>
</g>
<!-- iMessage: POST /imessage/recv&#45;&gt;BlueBubbles: POST /api/v1/message/text -->
<g id="edge32" class="edge">
<title>iMessage: POST /imessage/recv&#45;&gt;BlueBubbles: POST /api/v1/message/text</title>
<path fill="none" stroke="black" d="M905.56,-601.89C895.13,-601.89 884.48,-601.9 873.79,-601.91"/>
<polygon fill="black" stroke="black" points="873.54,-598.41 863.54,-601.91 873.55,-605.41 873.54,-598.41"/>
<text text-anchor="middle" x="884.79" y="-590.7" font-family="Times,serif" font-size="14.00">if Brain replies</text>
</g>
<!-- iMessage: POST /imessage/send -->
<g id="node38" class="node">
<title>iMessage: POST /imessage/send</title>
<path fill="lightblue" stroke="black" d="M520.03,-619.43C520.03,-619.43 297.03,-619.43 297.03,-619.43 291.03,-619.43 285.03,-613.43 285.03,-607.43 285.03,-607.43 285.03,-595.43 285.03,-595.43 285.03,-589.43 291.03,-583.43 297.03,-583.43 297.03,-583.43 520.03,-583.43 520.03,-583.43 526.03,-583.43 532.03,-589.43 532.03,-595.43 532.03,-595.43 532.03,-607.43 532.03,-607.43 532.03,-613.43 526.03,-619.43 520.03,-619.43"/>
<text text-anchor="middle" x="408.53" y="-597.73" font-family="Times,serif" font-size="14.00" fill="#080537">iMessage: POST /imessage/send</text>
</g>
<!-- iMessage: POST /imessage/send&#45;&gt;BlueBubbles: POST /api/v1/message/text -->
<g id="edge29" class="edge">
<title>iMessage: POST /imessage/send&#45;&gt;BlueBubbles: POST /api/v1/message/text</title>
<path fill="none" stroke="black" d="M532.2,-601.66C536.49,-601.67 540.8,-601.67 545.13,-601.68"/>
<polygon fill="black" stroke="black" points="545.25,-605.18 555.26,-601.7 545.27,-598.18 545.25,-605.18"/>
</g>
<!-- BlueBubbles: POST /api/v1/chat/new -->
<g id="node66" class="node">
<title>BlueBubbles: POST /api/v1/chat/new</title>
<path fill="lightblue" stroke="black" d="M265,-619.07C265,-619.07 12,-619.07 12,-619.07 6,-619.07 0,-613.07 0,-607.07 0,-607.07 0,-595.07 0,-595.07 0,-589.07 6,-583.07 12,-583.07 12,-583.07 265,-583.07 265,-583.07 271,-583.07 277,-589.07 277,-595.07 277,-595.07 277,-607.07 277,-607.07 277,-613.07 271,-619.07 265,-619.07"/>
<text text-anchor="middle" x="138.5" y="-597.37" font-family="Times,serif" font-size="14.00" fill="#080537">BlueBubbles: POST /api/v1/chat/new</text>
</g>
<!-- iMessage: POST /imessage/send&#45;&gt;BlueBubbles: POST /api/v1/chat/new -->
<g id="edge30" class="edge">
<title>iMessage: POST /imessage/send&#45;&gt;BlueBubbles: POST /api/v1/chat/new</title>
<path fill="none" stroke="black" d="M284.97,-601.27C284.81,-601.27 284.64,-601.26 284.48,-601.26"/>
<polygon fill="black" stroke="black" points="287.05,-597.77 277.04,-601.25 287.04,-604.77 287.05,-597.77"/>
<text text-anchor="middle" x="247.04" y="-590.06" font-family="Times,serif" font-size="14.00">if chat does not exist</text>
</g>
<!-- Intents: GET /intents -->
<g id="node39" class="node">
<title>Intents: GET /intents</title>
<path fill="lightblue" stroke="black" d="M419,-861C419,-861 276,-861 276,-861 270,-861 264,-855 264,-849 264,-849 264,-837 264,-837 264,-831 270,-825 276,-825 276,-825 419,-825 419,-825 425,-825 431,-831 431,-837 431,-837 431,-849 431,-849 431,-855 425,-861 419,-861"/>
<text text-anchor="middle" x="347.5" y="-839.3" font-family="Times,serif" font-size="14.00" fill="#080537">Intents: GET /intents</text>
</g>
<!-- Intents: POST /intents&#45;&gt;Brain: DELETE /memory -->
<g id="edge36" class="edge">
<title>Intents: POST /intents&#45;&gt;Brain: DELETE /memory</title>
<path fill="none" stroke="black" d="M1841.56,-1100.23C1865.66,-1134.99 1918.57,-1211.27 1946.59,-1251.67"/>
<polygon fill="black" stroke="black" points="1943.76,-1253.73 1952.33,-1259.96 1949.51,-1249.74 1943.76,-1253.73"/>
</g>
<!-- Intents: POST /intents&#45;&gt;Brain: POST /memory -->
<g id="edge35" class="edge">
<title>Intents: POST /intents&#45;&gt;Brain: POST /memory</title>
<path fill="none" stroke="black" d="M1845.96,-1064.04C1858.75,-1050.43 1876.8,-1031.38 1892.93,-1014.95 1919.74,-987.66 1951,-956.99 1972.54,-936.03"/>
<polygon fill="black" stroke="black" points="1974.99,-938.53 1979.72,-929.05 1970.11,-933.51 1974.99,-938.53"/>
</g>
<!-- Intents: POST /intents&#45;&gt;Brain: GET /mode -->
<g id="edge33" class="edge">
<title>Intents: POST /intents&#45;&gt;Brain: GET /mode</title>
<path fill="none" stroke="black" d="M1883.41,-1064.11C1889.93,-1061.95 1896.64,-1059.72 1903.28,-1057.51"/>
<polygon fill="black" stroke="black" points="1904.56,-1060.78 1912.95,-1054.3 1902.36,-1054.13 1904.56,-1060.78"/>
</g>
<!-- Brain: POST /mode/MODE -->
<g id="node67" class="node">
<title>Brain: POST /mode/MODE</title>
<path fill="lightblue" stroke="black" d="M1842.29,-974.95C1842.29,-974.95 1662.29,-974.95 1662.29,-974.95 1656.29,-974.95 1650.29,-968.95 1650.29,-962.95 1650.29,-962.95 1650.29,-950.95 1650.29,-950.95 1650.29,-944.95 1656.29,-938.95 1662.29,-938.95 1662.29,-938.95 1842.29,-938.95 1842.29,-938.95 1848.29,-938.95 1854.29,-944.95 1854.29,-950.95 1854.29,-950.95 1854.29,-962.95 1854.29,-962.95 1854.29,-968.95 1848.29,-974.95 1842.29,-974.95"/>
<text text-anchor="middle" x="1752.29" y="-953.25" font-family="Times,serif" font-size="14.00" fill="#080537">Brain: POST /mode/MODE</text>
</g>
<!-- Intents: POST /intents&#45;&gt;Brain: POST /mode/MODE -->
<g id="edge34" class="edge">
<title>Intents: POST /intents&#45;&gt;Brain: POST /mode/MODE</title>
<path fill="none" stroke="black" d="M1817.87,-1063.96C1804.97,-1042.91 1783.61,-1008.06 1768.79,-983.88"/>
<polygon fill="black" stroke="black" points="1771.67,-981.88 1763.46,-975.18 1765.7,-985.54 1771.67,-981.88"/>
</g>
<!-- Ollama: GET /api/tags -->
<g id="node69" class="node">
<title>Ollama: GET /api/tags</title>
<path fill="lightblue" stroke="black" d="M1629.76,-234C1629.76,-234 1480.76,-234 1480.76,-234 1474.76,-234 1468.76,-228 1468.76,-222 1468.76,-222 1468.76,-210 1468.76,-210 1468.76,-204 1474.76,-198 1480.76,-198 1480.76,-198 1629.76,-198 1629.76,-198 1635.76,-198 1641.76,-204 1641.76,-210 1641.76,-210 1641.76,-222 1641.76,-222 1641.76,-228 1635.76,-234 1629.76,-234"/>
<text text-anchor="middle" x="1555.26" y="-212.3" font-family="Times,serif" font-size="14.00" fill="#080537">Ollama: GET /api/tags</text>
</g>
<!-- Proxy: GET /api/models&#45;&gt;Ollama: GET /api/tags -->
<g id="edge40" class="edge">
<title>Proxy: GET /api/models&#45;&gt;Ollama: GET /api/tags</title>
<path fill="none" stroke="black" d="M1333.2,-216C1372.6,-216 1418.61,-216 1458.5,-216"/>
<polygon fill="black" stroke="black" points="1458.5,-219.5 1468.5,-216 1458.5,-212.5 1458.5,-219.5"/>
</g>
<!-- Proxy: GET /api/models/MODEL_NAME&#45;&gt;Ollama: GET /api/tags -->
<g id="edge41" class="edge">
<title>Proxy: GET /api/models/MODEL_NAME&#45;&gt;Ollama: GET /api/tags</title>
<path fill="none" stroke="black" d="M1731.39,-216C1704.5,-216 1677.13,-216 1652.22,-216"/>
<polygon fill="black" stroke="black" points="1652.08,-212.5 1642.08,-216 1652.08,-219.5 1652.08,-212.5"/>
</g>
<!-- Ollama: POST /api/generate -->
<g id="node68" class="node">
<title>Ollama: POST /api/generate</title>
<path fill="lightblue" stroke="black" d="M1277.1,-892.22C1277.1,-892.22 1086.1,-892.22 1086.1,-892.22 1080.1,-892.22 1074.1,-886.22 1074.1,-880.22 1074.1,-880.22 1074.1,-868.22 1074.1,-868.22 1074.1,-862.22 1080.1,-856.22 1086.1,-856.22 1086.1,-856.22 1277.1,-856.22 1277.1,-856.22 1283.1,-856.22 1289.1,-862.22 1289.1,-868.22 1289.1,-868.22 1289.1,-880.22 1289.1,-880.22 1289.1,-886.22 1283.1,-892.22 1277.1,-892.22"/>
<text text-anchor="middle" x="1181.6" y="-870.52" font-family="Times,serif" font-size="14.00" fill="#080537">Ollama: POST /api/generate</text>
</g>
<!-- Proxy: POST /from/api/completions&#45;&gt;Ollama: POST /api/generate -->
<g id="edge37" class="edge">
<title>Proxy: POST /from/api/completions&#45;&gt;Ollama: POST /api/generate</title>
<path fill="none" stroke="black" d="M1088.63,-998.56C1107.09,-973.88 1140.35,-929.39 1161.68,-900.86"/>
<polygon fill="black" stroke="black" points="1164.71,-902.66 1167.89,-892.55 1159.1,-898.47 1164.71,-902.66"/>
</g>
<!-- Proxy: POST /from/api/multiturn&#45;&gt;Ollama: POST /api/generate -->
<g id="edge38" class="edge">
<title>Proxy: POST /from/api/multiturn&#45;&gt;Ollama: POST /api/generate</title>
<path fill="none" stroke="black" d="M1339.67,-956.94C1307.61,-940.16 1259.67,-915.08 1224.99,-896.93"/>
<polygon fill="black" stroke="black" points="1226.52,-893.78 1216.04,-892.24 1223.27,-899.98 1226.52,-893.78"/>
</g>
<!-- Proxy: POST /from/imessage -->
<g id="node45" class="node">
<title>Proxy: POST /from/imessage</title>
<path fill="lightblue" stroke="black" d="M1133,-805.93C1133,-805.93 936,-805.93 936,-805.93 930,-805.93 924,-799.93 924,-793.93 924,-793.93 924,-781.93 924,-781.93 924,-775.93 930,-769.93 936,-769.93 936,-769.93 1133,-769.93 1133,-769.93 1139,-769.93 1145,-775.93 1145,-781.93 1145,-781.93 1145,-793.93 1145,-793.93 1145,-799.93 1139,-805.93 1133,-805.93"/>
<text text-anchor="middle" x="1034.5" y="-784.23" font-family="Times,serif" font-size="14.00" fill="#080537">Proxy: POST /from/imessage</text>
</g>
<!-- Proxy: POST /from/imessage&#45;&gt;Ollama: POST /api/generate -->
<g id="edge39" class="edge">
<title>Proxy: POST /from/imessage&#45;&gt;Ollama: POST /api/generate</title>
<path fill="none" stroke="black" d="M1065.34,-806.02C1087.6,-819.08 1117.85,-836.82 1141.91,-850.94"/>
<polygon fill="black" stroke="black" points="1140.41,-854.11 1150.8,-856.15 1143.95,-848.08 1140.41,-854.11"/>
</g>
<!-- External: POST &lt;external_url&gt; -->
<g id="node70" class="node">
<title>External: POST &lt;external_url&gt;</title>
<path fill="lightblue" stroke="black" d="M857,-366C857,-366 639,-366 639,-366 633,-366 627,-360 627,-354 627,-354 627,-342 627,-342 627,-336 633,-330 639,-330 639,-330 857,-330 857,-330 863,-330 869,-336 869,-342 869,-342 869,-354 869,-354 869,-360 863,-366 857,-366"/>
<text text-anchor="middle" x="748" y="-344.3" font-family="Times,serif" font-size="14.00" fill="#080537">External: POST &lt;external_url&gt;</text>
</g>
<!-- Scheduler: POST /jobs&#45;&gt;External: POST &lt;external_url&gt; -->
<g id="edge42" class="edge">
<title>Scheduler: POST /jobs&#45;&gt;External: POST &lt;external_url&gt;</title>
<path fill="none" stroke="black" d="M879.55,-348C879.45,-348 879.34,-348 879.23,-348"/>
<polygon fill="black" stroke="black" points="879.1,-344.5 869.1,-348 879.1,-351.5 879.1,-344.5"/>
<text text-anchor="middle" x="828.27" y="-351.8" font-family="Times,serif" font-size="14.00">when job runs</text>
</g>
<!-- Scheduler: POST /jobs/JOB_ID/pause -->
<g id="node49" class="node">
<title>Scheduler: POST /jobs/JOB_ID/pause</title>
<path fill="lightblue" stroke="black" d="M1750,-531C1750,-531 1497,-531 1497,-531 1491,-531 1485,-525 1485,-519 1485,-519 1485,-507 1485,-507 1485,-501 1491,-495 1497,-495 1497,-495 1750,-495 1750,-495 1756,-495 1762,-501 1762,-507 1762,-507 1762,-519 1762,-519 1762,-525 1756,-531 1750,-531"/>
<text text-anchor="middle" x="1623.5" y="-509.3" font-family="Times,serif" font-size="14.00" fill="#080537">Scheduler: POST /jobs/JOB_ID/pause</text>
</g>
<!-- Scheduler: POST /jobs/JOB_ID/resume -->
<g id="node50" class="node">
<title>Scheduler: POST /jobs/JOB_ID/resume</title>
<path fill="lightblue" stroke="black" d="M606,-531C606,-531 342,-531 342,-531 336,-531 330,-525 330,-519 330,-519 330,-507 330,-507 330,-501 336,-495 342,-495 342,-495 606,-495 606,-495 612,-495 618,-501 618,-507 618,-507 618,-519 618,-519 618,-525 612,-531 606,-531"/>
<text text-anchor="middle" x="474" y="-509.3" font-family="Times,serif" font-size="14.00" fill="#080537">Scheduler: POST /jobs/JOB_ID/resume</text>
</g>
<!-- Summarize: DELETE /buffer/USER_ID -->
<g id="node51" class="node">
<title>Summarize: DELETE /buffer/USER_ID</title>
<path fill="lightblue" stroke="black" d="M1169,-36C1169,-36 903,-36 903,-36 897,-36 891,-30 891,-24 891,-24 891,-12 891,-12 891,-6 897,0 903,0 903,0 1169,0 1169,0 1175,0 1181,-6 1181,-12 1181,-12 1181,-24 1181,-24 1181,-30 1175,-36 1169,-36"/>
<text text-anchor="middle" x="1036" y="-14.3" font-family="Times,serif" font-size="14.00" fill="#080537">Summarize: DELETE /buffer/USER_ID</text>
</g>
<!-- Summarize: DELETE /summary/ID -->
<g id="node52" class="node">
<title>Summarize: DELETE /summary/ID</title>
<path fill="lightblue" stroke="black" d="M1737,-729C1737,-729 1497,-729 1497,-729 1491,-729 1485,-723 1485,-717 1485,-717 1485,-705 1485,-705 1485,-699 1491,-693 1497,-693 1497,-693 1737,-693 1737,-693 1743,-693 1749,-699 1749,-705 1749,-705 1749,-717 1749,-717 1749,-723 1743,-729 1737,-729"/>
<text text-anchor="middle" x="1617" y="-707.3" font-family="Times,serif" font-size="14.00" fill="#080537">Summarize: DELETE /summary/ID</text>
</g>
<!-- Summarize: DELETE /summary/user/USER_ID -->
<g id="node53" class="node">
<title>Summarize: DELETE /summary/user/USER_ID</title>
<path fill="lightblue" stroke="black" d="M833,-267C833,-267 507,-267 507,-267 501,-267 495,-261 495,-255 495,-255 495,-243 495,-243 495,-237 501,-231 507,-231 507,-231 833,-231 833,-231 839,-231 845,-237 845,-243 845,-243 845,-255 845,-255 845,-261 839,-267 833,-267"/>
<text text-anchor="middle" x="670" y="-245.3" font-family="Times,serif" font-size="14.00" fill="#080537">Summarize: DELETE /summary/user/USER_ID</text>
</g>
<!-- Summarize: GET /buffer -->
<g id="node54" class="node">
<title>Summarize: GET /buffer</title>
<path fill="lightblue" stroke="black" d="M441,-960C441,-960 276,-960 276,-960 270,-960 264,-954 264,-948 264,-948 264,-936 264,-936 264,-930 270,-924 276,-924 276,-924 441,-924 441,-924 447,-924 453,-930 453,-936 453,-936 453,-948 453,-948 453,-954 447,-960 441,-960"/>
<text text-anchor="middle" x="358.5" y="-938.3" font-family="Times,serif" font-size="14.00" fill="#080537">Summarize: GET /buffer</text>
</g>
<!-- Summarize: GET /buffer/USER_ID -->
<g id="node55" class="node">
<title>Summarize: GET /buffer/USER_ID</title>
<path fill="lightblue" stroke="black" d="M1733,-828C1733,-828 1497,-828 1497,-828 1491,-828 1485,-822 1485,-816 1485,-816 1485,-804 1485,-804 1485,-798 1491,-792 1497,-792 1497,-792 1733,-792 1733,-792 1739,-792 1745,-798 1745,-804 1745,-804 1745,-816 1745,-816 1745,-822 1739,-828 1733,-828"/>
<text text-anchor="middle" x="1615" y="-806.3" font-family="Times,serif" font-size="14.00" fill="#080537">Summarize: GET /buffer/USER_ID</text>
</g>
<!-- Summarize: GET /context/USER_ID -->
<g id="node56" class="node">
<title>Summarize: GET /context/USER_ID</title>
<path fill="lightblue" stroke="black" d="M852,-1257C852,-1257 606,-1257 606,-1257 600,-1257 594,-1251 594,-1245 594,-1245 594,-1233 594,-1233 594,-1227 600,-1221 606,-1221 606,-1221 852,-1221 852,-1221 858,-1221 864,-1227 864,-1233 864,-1233 864,-1245 864,-1245 864,-1251 858,-1257 852,-1257"/>
<text text-anchor="middle" x="729" y="-1235.3" font-family="Times,serif" font-size="14.00" fill="#080537">Summarize: GET /context/USER_ID</text>
</g>
<!-- Summarize: GET /summary/ID -->
<g id="node57" class="node">
<title>Summarize: GET /summary/ID</title>
<path fill="lightblue" stroke="black" d="M519,-1059C519,-1059 309,-1059 309,-1059 303,-1059 297,-1053 297,-1047 297,-1047 297,-1035 297,-1035 297,-1029 303,-1023 309,-1023 309,-1023 519,-1023 519,-1023 525,-1023 531,-1029 531,-1035 531,-1035 531,-1047 531,-1047 531,-1053 525,-1059 519,-1059"/>
<text text-anchor="middle" x="414" y="-1037.3" font-family="Times,serif" font-size="14.00" fill="#080537">Summarize: GET /summary/ID</text>
</g>
<!-- Summarize: GET /summary/search -->
<g id="node58" class="node">
<title>Summarize: GET /summary/search</title>
<path fill="lightblue" stroke="black" d="M517,-1257C517,-1257 276,-1257 276,-1257 270,-1257 264,-1251 264,-1245 264,-1245 264,-1233 264,-1233 264,-1227 270,-1221 276,-1221 276,-1221 517,-1221 517,-1221 523,-1221 529,-1227 529,-1233 529,-1233 529,-1245 529,-1245 529,-1251 523,-1257 517,-1257"/>
<text text-anchor="middle" x="396.5" y="-1235.3" font-family="Times,serif" font-size="14.00" fill="#080537">Summarize: GET /summary/search</text>
</g>
<!-- Summarize: GET /summary/user/USER_ID -->
<g id="node59" class="node">
<title>Summarize: GET /summary/user/USER_ID</title>
<path fill="lightblue" stroke="black" d="M902,-1059C902,-1059 606,-1059 606,-1059 600,-1059 594,-1053 594,-1047 594,-1047 594,-1035 594,-1035 594,-1029 600,-1023 606,-1023 606,-1023 902,-1023 902,-1023 908,-1023 914,-1029 914,-1035 914,-1035 914,-1047 914,-1047 914,-1053 908,-1059 902,-1059"/>
<text text-anchor="middle" x="754" y="-1037.3" font-family="Times,serif" font-size="14.00" fill="#080537">Summarize: GET /summary/user/USER_ID</text>
</g>
<!-- Summarize: POST /summarize_buffers -->
<g id="node61" class="node">
<title>Summarize: POST /summarize_buffers</title>
<path fill="lightblue" stroke="black" d="M1331.18,-729C1331.18,-729 1064.18,-729 1064.18,-729 1058.18,-729 1052.18,-723 1052.18,-717 1052.18,-717 1052.18,-705 1052.18,-705 1052.18,-699 1058.18,-693 1064.18,-693 1064.18,-693 1331.18,-693 1331.18,-693 1337.18,-693 1343.18,-699 1343.18,-705 1343.18,-705 1343.18,-717 1343.18,-717 1343.18,-723 1337.18,-729 1331.18,-729"/>
<text text-anchor="middle" x="1197.68" y="-707.3" font-family="Times,serif" font-size="14.00" fill="#080537">Summarize: POST /summarize_buffers</text>
</g>
<!-- Summarize: POST /summarize_buffers&#45;&gt;Ollama: POST /api/generate -->
<g id="edge43" class="edge">
<title>Summarize: POST /summarize_buffers&#45;&gt;Ollama: POST /api/generate</title>
<path fill="none" stroke="black" d="M1195.9,-729.09C1193.11,-757.4 1187.69,-812.4 1184.38,-845.96"/>
<polygon fill="black" stroke="black" points="1180.89,-845.75 1183.39,-856.05 1187.85,-846.44 1180.89,-845.75"/>
<text text-anchor="middle" x="1243.14" y="-796.42" font-family="Times,serif" font-size="14.00">summarization</text>
</g>
<!-- Summarize: POST /summary -->
<g id="node62" class="node">
<title>Summarize: POST /summary</title>
<path fill="lightblue" stroke="black" d="M1365,-1125C1365,-1125 1167,-1125 1167,-1125 1161,-1125 1155,-1119 1155,-1113 1155,-1113 1155,-1101 1155,-1101 1155,-1095 1161,-1089 1167,-1089 1167,-1089 1365,-1089 1365,-1089 1371,-1089 1377,-1095 1377,-1101 1377,-1101 1377,-1113 1377,-1113 1377,-1119 1371,-1125 1365,-1125"/>
<text text-anchor="middle" x="1266" y="-1103.3" font-family="Times,serif" font-size="14.00" fill="#080537">Summarize: POST /summary</text>
</g>
</g>
</svg>
