<?xml version="1.0" encoding="UTF-8" standalone="no"?>
<!DOCTYPE svg PUBLIC "-//W3C//DTD SVG 1.1//EN"
 "http://www.w3.org/Graphics/SVG/1.1/DTD/svg11.dtd">
<!-- Generated by graphviz version 2.43.0 (0)
 -->
<!-- Title: Microservices Pages: 1 -->
<svg width="1185pt" height="985pt"
 viewBox="0.00 0.00 1185.02 984.52" xmlns="http://www.w3.org/2000/svg" xmlns:xlink="http://www.w3.org/1999/xlink">
<g id="graph0" class="graph" transform="scale(1 1) rotate(0) translate(4 980.52)">
<title>Microservices</title>
<polygon fill="white" stroke="transparent" points="-4,4 -4,-980.52 1181.02,-980.52 1181.02,4 -4,4"/>
<!-- API: POST /v1/chat/completions -->
<g id="node1" class="node">
<title>API: POST /v1/chat/completions</title>
<path fill="lightblue" stroke="black" d="M612.63,-545.06C612.63,-545.06 394.63,-545.06 394.63,-545.06 388.63,-545.06 382.63,-539.06 382.63,-533.06 382.63,-533.06 382.63,-521.06 382.63,-521.06 382.63,-515.06 388.63,-509.06 394.63,-509.06 394.63,-509.06 612.63,-509.06 612.63,-509.06 618.63,-509.06 624.63,-515.06 624.63,-521.06 624.63,-521.06 624.63,-533.06 624.63,-533.06 624.63,-539.06 618.63,-545.06 612.63,-545.06"/>
<text text-anchor="middle" x="503.63" y="-523.36" font-family="Times,serif" font-size="14.00" fill="dimgray">API: POST /v1/chat/completions</text>
</g>
<!-- API: POST /v1/completions -->
<g id="node2" class="node">
<title>API: POST /v1/completions</title>
<path fill="lightblue" stroke="black" d="M401.72,-750.55C401.72,-750.55 218.72,-750.55 218.72,-750.55 212.72,-750.55 206.72,-744.55 206.72,-738.55 206.72,-738.55 206.72,-726.55 206.72,-726.55 206.72,-720.55 212.72,-714.55 218.72,-714.55 218.72,-714.55 401.72,-714.55 401.72,-714.55 407.72,-714.55 413.72,-720.55 413.72,-726.55 413.72,-726.55 413.72,-738.55 413.72,-738.55 413.72,-744.55 407.72,-750.55 401.72,-750.55"/>
<text text-anchor="middle" x="310.22" y="-728.85" font-family="Times,serif" font-size="14.00" fill="dimgray">API: POST /v1/completions</text>
</g>
<!-- API: POST /v1/chat/completions&#45;&#45;API: POST /v1/completions -->
<g id="edge1" class="edge">
<title>API: POST /v1/chat/completions&#45;&#45;API: POST /v1/completions</title>
<path fill="none" stroke="black" d="M486.46,-545.3C449.76,-584.29 364.02,-675.4 327.35,-714.35"/>
</g>
<!-- Brain: POST /message/multiturn/incoming -->
<g id="node3" class="node">
<title>Brain: POST /message/multiturn/incoming</title>
<path fill="lightblue" stroke="black" d="M852.53,-329.47C852.53,-329.47 558.53,-329.47 558.53,-329.47 552.53,-329.47 546.53,-323.47 546.53,-317.47 546.53,-317.47 546.53,-305.47 546.53,-305.47 546.53,-299.47 552.53,-293.47 558.53,-293.47 558.53,-293.47 852.53,-293.47 852.53,-293.47 858.53,-293.47 864.53,-299.47 864.53,-305.47 864.53,-305.47 864.53,-317.47 864.53,-317.47 864.53,-323.47 858.53,-329.47 852.53,-329.47"/>
<text text-anchor="middle" x="705.53" y="-307.77" font-family="Times,serif" font-size="14.00" fill="dimgray">Brain: POST /message/multiturn/incoming</text>
</g>
<!-- API: POST /v1/chat/completions&#45;&#45;Brain: POST /message/multiturn/incoming -->
<g id="edge2" class="edge">
<title>API: POST /v1/chat/completions&#45;&#45;Brain: POST /message/multiturn/incoming</title>
<path fill="none" stroke="black" d="M520.49,-509.05C558.5,-468.47 650.47,-370.26 688.57,-329.58"/>
</g>
<!-- Brain: POST /message/single/incoming -->
<g id="node4" class="node">
<title>Brain: POST /message/single/incoming</title>
<path fill="lightblue" stroke="black" d="M281,-976.52C281,-976.52 12,-976.52 12,-976.52 6,-976.52 0,-970.52 0,-964.52 0,-964.52 0,-952.52 0,-952.52 0,-946.52 6,-940.52 12,-940.52 12,-940.52 281,-940.52 281,-940.52 287,-940.52 293,-946.52 293,-952.52 293,-952.52 293,-964.52 293,-964.52 293,-970.52 287,-976.52 281,-976.52"/>
<text text-anchor="middle" x="146.5" y="-954.82" font-family="Times,serif" font-size="14.00" fill="dimgray">Brain: POST /message/single/incoming</text>
</g>
<!-- API: POST /v1/completions&#45;&#45;Brain: POST /message/single/incoming -->
<g id="edge3" class="edge">
<title>API: POST /v1/completions&#45;&#45;Brain: POST /message/single/incoming</title>
<path fill="none" stroke="black" d="M297.1,-750.66C266.45,-792.97 190.4,-897.93 159.68,-940.32"/>
</g>
<!-- Proxy: POST /from/api/multiturn -->
<g id="node9" class="node">
<title>Proxy: POST /from/api/multiturn</title>
<path fill="lightblue" stroke="black" d="M751.34,-36C751.34,-36 527.34,-36 527.34,-36 521.34,-36 515.34,-30 515.34,-24 515.34,-24 515.34,-12 515.34,-12 515.34,-6 521.34,0 527.34,0 527.34,0 751.34,0 751.34,0 757.34,0 763.34,-6 763.34,-12 763.34,-12 763.34,-24 763.34,-24 763.34,-30 757.34,-36 751.34,-36"/>
<text text-anchor="middle" x="639.34" y="-14.3" font-family="Times,serif" font-size="14.00" fill="dimgray">Proxy: POST /from/api/multiturn</text>
</g>
<!-- Brain: POST /message/multiturn/incoming&#45;&#45;Proxy: POST /from/api/multiturn -->
<g id="edge6" class="edge">
<title>Brain: POST /message/multiturn/incoming&#45;&#45;Proxy: POST /from/api/multiturn</title>
<path fill="none" stroke="black" d="M701.39,-293.12C689.5,-240.41 655.36,-89.05 643.48,-36.35"/>
</g>
<!-- Proxy: POST /from/api/completions -->
<g id="node10" class="node">
<title>Proxy: POST /from/api/completions</title>
<path fill="lightblue" stroke="black" d="M1124.19,-373.48C1124.19,-373.48 882.19,-373.48 882.19,-373.48 876.19,-373.48 870.19,-367.48 870.19,-361.48 870.19,-361.48 870.19,-349.48 870.19,-349.48 870.19,-343.48 876.19,-337.48 882.19,-337.48 882.19,-337.48 1124.19,-337.48 1124.19,-337.48 1130.19,-337.48 1136.19,-343.48 1136.19,-349.48 1136.19,-349.48 1136.19,-361.48 1136.19,-361.48 1136.19,-367.48 1130.19,-373.48 1124.19,-373.48"/>
<text text-anchor="middle" x="1003.19" y="-351.78" font-family="Times,serif" font-size="14.00" fill="dimgray">Proxy: POST /from/api/completions</text>
</g>
<!-- Brain: POST /message/multiturn/incoming&#45;&#45;Proxy: POST /from/api/completions -->
<g id="edge7" class="edge">
<title>Brain: POST /message/multiturn/incoming&#45;&#45;Proxy: POST /from/api/completions</title>
<path fill="none" stroke="black" d="M827.46,-329.5C845.12,-332.11 863.3,-334.8 880.97,-337.41"/>
</g>
<!-- API: GET /v1/models/MODEL_ID -->
<g id="node5" class="node">
<title>API: GET /v1/models/MODEL_ID</title>
<path fill="lightblue" stroke="black" d="M925,-693.98C925,-693.98 702,-693.98 702,-693.98 696,-693.98 690,-687.98 690,-681.98 690,-681.98 690,-669.98 690,-669.98 690,-663.98 696,-657.98 702,-657.98 702,-657.98 925,-657.98 925,-657.98 931,-657.98 937,-663.98 937,-669.98 937,-669.98 937,-681.98 937,-681.98 937,-687.98 931,-693.98 925,-693.98"/>
<text text-anchor="middle" x="813.5" y="-672.28" font-family="Times,serif" font-size="14.00" fill="dimgray">API: GET /v1/models/MODEL_ID</text>
</g>
<!-- Brain: GET /model/MODEL_ID -->
<g id="node6" class="node">
<title>Brain: GET /model/MODEL_ID</title>
<path fill="lightblue" stroke="black" d="M1165.02,-657C1165.02,-657 957.02,-657 957.02,-657 951.02,-657 945.02,-651 945.02,-645 945.02,-645 945.02,-633 945.02,-633 945.02,-627 951.02,-621 957.02,-621 957.02,-621 1165.02,-621 1165.02,-621 1171.02,-621 1177.02,-627 1177.02,-633 1177.02,-633 1177.02,-645 1177.02,-645 1177.02,-651 1171.02,-657 1165.02,-657"/>
<text text-anchor="middle" x="1061.02" y="-635.3" font-family="Times,serif" font-size="14.00" fill="dimgray">Brain: GET /model/MODEL_ID</text>
</g>
<!-- API: GET /v1/models/MODEL_ID&#45;&#45;Brain: GET /model/MODEL_ID -->
<g id="edge4" class="edge">
<title>API: GET /v1/models/MODEL_ID&#45;&#45;Brain: GET /model/MODEL_ID</title>
<path fill="none" stroke="black" d="M934,-657.98C937.56,-657.45 941.13,-656.91 944.69,-656.38"/>
</g>
<!-- API: GET /v1/models -->
<g id="node7" class="node">
<title>API: GET /v1/models</title>
<path fill="lightblue" stroke="black" d="M979,-200.6C979,-200.6 840,-200.6 840,-200.6 834,-200.6 828,-194.6 828,-188.6 828,-188.6 828,-176.6 828,-176.6 828,-170.6 834,-164.6 840,-164.6 840,-164.6 979,-164.6 979,-164.6 985,-164.6 991,-170.6 991,-176.6 991,-176.6 991,-188.6 991,-188.6 991,-194.6 985,-200.6 979,-200.6"/>
<text text-anchor="middle" x="909.5" y="-178.9" font-family="Times,serif" font-size="14.00" fill="dimgray">API: GET /v1/models</text>
</g>
<!-- Brain: GET /v1/models -->
<g id="node8" class="node">
<title>Brain: GET /v1/models</title>
<path fill="lightblue" stroke="black" d="M1164.02,-174C1164.02,-174 1011.02,-174 1011.02,-174 1005.02,-174 999.02,-168 999.02,-162 999.02,-162 999.02,-150 999.02,-150 999.02,-144 1005.02,-138 1011.02,-138 1011.02,-138 1164.02,-138 1164.02,-138 1170.02,-138 1176.02,-144 1176.02,-150 1176.02,-150 1176.02,-162 1176.02,-162 1176.02,-168 1170.02,-174 1164.02,-174"/>
<text text-anchor="middle" x="1087.52" y="-152.3" font-family="Times,serif" font-size="14.00" fill="dimgray">Brain: GET /v1/models</text>
</g>
<!-- API: GET /v1/models&#45;&#45;Brain: GET /v1/models -->
<g id="edge5" class="edge">
<title>API: GET /v1/models&#45;&#45;Brain: GET /v1/models</title>
<path fill="none" stroke="black" d="M991.21,-170.39C993.77,-170.01 996.34,-169.62 998.91,-169.24"/>
</g>
</g>
</svg>
