<?xml version="1.0" encoding="UTF-8" standalone="no"?>
<!DOCTYPE svg PUBLIC "-//W3C//DTD SVG 1.1//EN"
 "http://www.w3.org/Graphics/SVG/1.1/DTD/svg11.dtd">
<!-- Generated by graphviz version 2.43.0 (0)
 -->
<!-- Title: Microservices Pages: 1 -->
<svg width="3201pt" height="1591pt"
 viewBox="0.00 0.00 3201.07 1591.46" xmlns="http://www.w3.org/2000/svg" xmlns:xlink="http://www.w3.org/1999/xlink">
<g id="graph0" class="graph" transform="scale(1 1) rotate(0) translate(4 1587.46)">
<title>Microservices</title>
<polygon fill="white" stroke="transparent" points="-4,4 -4,-1587.46 3197.07,-1587.46 3197.07,4 -4,4"/>
<!-- API: GET /models -->
<g id="node1" class="node">
<title>API: GET /models</title>
<polygon fill="lightyellow" stroke="black" points="1287.02,-270 1146.02,-270 1146.02,-234 1287.02,-234 1287.02,-270"/>
<text text-anchor="middle" x="1216.52" y="-248.3" font-family="Times,serif" font-size="14.00" fill="#080537">API: GET /models</text>
</g>
<!-- API: GET /v1/models -->
<g id="node62" class="node">
<title>API: GET /v1/models</title>
<path fill="lightblue" stroke="black" d="M1126,-270C1126,-270 987,-270 987,-270 981,-270 975,-264 975,-258 975,-258 975,-246 975,-246 975,-240 981,-234 987,-234 987,-234 1126,-234 1126,-234 1132,-234 1138,-240 1138,-246 1138,-246 1138,-258 1138,-258 1138,-264 1132,-270 1126,-270"/>
<text text-anchor="middle" x="1056.5" y="-248.3" font-family="Times,serif" font-size="14.00" fill="#080537">API: GET /v1/models</text>
</g>
<!-- API: GET /models&#45;&gt;API: GET /v1/models -->
<g id="edge6" class="edge">
<title>API: GET /models&#45;&gt;API: GET /v1/models</title>
<path fill="none" stroke="black" d="M1145.86,-252C1145.7,-252 1145.54,-252 1145.38,-252"/>
<polygon fill="black" stroke="black" points="1148.05,-248.5 1138.05,-252 1148.05,-255.5 1148.05,-248.5"/>
</g>
<!-- API: GET /models/MODEL_ID -->
<g id="node2" class="node">
<title>API: GET /models/MODEL_ID</title>
<polygon fill="lightyellow" stroke="black" points="1590,-738 1365,-738 1365,-702 1590,-702 1590,-738"/>
<text text-anchor="middle" x="1477.5" y="-716.3" font-family="Times,serif" font-size="14.00" fill="#080537">API: GET /models/MODEL_ID</text>
</g>
<!-- API: GET /v1/models/MODEL_ID -->
<g id="node3" class="node">
<title>API: GET /v1/models/MODEL_ID</title>
<polygon fill="lightyellow" stroke="black" points="1845.02,-760.24 1598.02,-760.24 1598.02,-724.24 1845.02,-724.24 1845.02,-760.24"/>
<text text-anchor="middle" x="1721.52" y="-738.54" font-family="Times,serif" font-size="14.00" fill="#080537">API: GET /v1/models/MODEL_ID</text>
</g>
<!-- API: GET /models/MODEL_ID&#45;&gt;API: GET /v1/models/MODEL_ID -->
<g id="edge7" class="edge">
<title>API: GET /models/MODEL_ID&#45;&gt;API: GET /v1/models/MODEL_ID</title>
<path fill="none" stroke="black" d="M1590.23,-730.27C1590.38,-730.29 1590.54,-730.3 1590.69,-730.31"/>
<polygon fill="black" stroke="black" points="1587.45,-733.53 1597.73,-730.96 1588.09,-726.56 1587.45,-733.53"/>
</g>
<!-- Brain: GET /model/MODEL_NAME -->
<g id="node12" class="node">
<title>Brain: GET /model/MODEL_NAME</title>
<polygon fill="lightgreen" stroke="black" points="2129.07,-769.91 1867.07,-769.91 1867.07,-733.91 2129.07,-733.91 2129.07,-769.91"/>
<text text-anchor="middle" x="1998.07" y="-748.21" font-family="Times,serif" font-size="14.00" fill="#080537">Brain: GET /model/MODEL_NAME</text>
</g>
<!-- API: GET /v1/models/MODEL_ID&#45;&gt;Brain: GET /model/MODEL_NAME -->
<g id="edge3" class="edge">
<title>API: GET /v1/models/MODEL_ID&#45;&gt;Brain: GET /model/MODEL_NAME</title>
<path fill="none" stroke="black" d="M1845.24,-746.56C1849.06,-746.7 1852.89,-746.83 1856.73,-746.96"/>
<polygon fill="black" stroke="black" points="1856.77,-750.47 1866.89,-747.32 1857.02,-743.47 1856.77,-750.47"/>
</g>
<!-- API: POST /chat/completions -->
<g id="node4" class="node">
<title>API: POST /chat/completions</title>
<polygon fill="lightyellow" stroke="black" points="571.93,-848.13 350.93,-848.13 350.93,-812.13 571.93,-812.13 571.93,-848.13"/>
<text text-anchor="middle" x="461.43" y="-826.43" font-family="Times,serif" font-size="14.00" fill="#080537">API: POST /chat/completions</text>
</g>
<!-- API: POST /v1/chat/completions -->
<g id="node6" class="node">
<title>API: POST /v1/chat/completions</title>
<polygon fill="lightyellow" stroke="black" points="821.95,-886.45 579.95,-886.45 579.95,-850.45 821.95,-850.45 821.95,-886.45"/>
<text text-anchor="middle" x="700.95" y="-864.75" font-family="Times,serif" font-size="14.00" fill="#080537">API: POST /v1/chat/completions</text>
</g>
<!-- API: POST /chat/completions&#45;&gt;API: POST /v1/chat/completions -->
<g id="edge5" class="edge">
<title>API: POST /chat/completions&#45;&gt;API: POST /v1/chat/completions</title>
<path fill="none" stroke="black" d="M572.07,-847.83C574.18,-848.17 576.29,-848.51 578.4,-848.84"/>
<polygon fill="black" stroke="black" points="577.86,-852.3 588.28,-850.43 578.96,-845.39 577.86,-852.3"/>
</g>
<!-- API: POST /completions -->
<g id="node5" class="node">
<title>API: POST /completions</title>
<polygon fill="lightyellow" stroke="black" points="374.25,-1189.9 189.25,-1189.9 189.25,-1153.9 374.25,-1153.9 374.25,-1189.9"/>
<text text-anchor="middle" x="281.75" y="-1168.2" font-family="Times,serif" font-size="14.00" fill="#080537">API: POST /completions</text>
</g>
<!-- API: POST /v1/completions -->
<g id="node7" class="node">
<title>API: POST /v1/completions</title>
<polygon fill="lightyellow" stroke="black" points="480.35,-997.79 273.35,-997.79 273.35,-961.79 480.35,-961.79 480.35,-997.79"/>
<text text-anchor="middle" x="376.85" y="-976.09" font-family="Times,serif" font-size="14.00" fill="#080537">API: POST /v1/completions</text>
</g>
<!-- API: POST /completions&#45;&gt;API: POST /v1/completions -->
<g id="edge4" class="edge">
<title>API: POST /completions&#45;&gt;API: POST /v1/completions</title>
<path fill="none" stroke="black" d="M290.7,-1153.82C307.44,-1120 343.6,-1046.95 363.33,-1007.09"/>
<polygon fill="black" stroke="black" points="366.56,-1008.47 367.86,-997.95 360.28,-1005.36 366.56,-1008.47"/>
</g>
<!-- API: POST /v1/chat/completions&#45;&gt;API: POST /v1/completions -->
<g id="edge8" class="edge">
<title>API: POST /v1/chat/completions&#45;&gt;API: POST /v1/completions</title>
<path fill="none" stroke="black" d="M648.52,-886.46C591.29,-906.12 499.74,-937.57 438.96,-958.45"/>
<polygon fill="black" stroke="black" points="437.79,-955.15 429.47,-961.71 440.07,-961.77 437.79,-955.15"/>
<text text-anchor="middle" x="491.39" y="-927.92" font-family="Times,serif" font-size="14.00">if &#39;### Task&#39;</text>
</g>
<!-- Brain: POST /message/multiturn/incoming -->
<g id="node18" class="node">
<title>Brain: POST /message/multiturn/incoming</title>
<polygon fill="lightgreen" stroke="black" points="1014.93,-681.54 696.93,-681.54 696.93,-645.54 1014.93,-645.54 1014.93,-681.54"/>
<text text-anchor="middle" x="855.93" y="-659.84" font-family="Times,serif" font-size="14.00" fill="#080537">Brain: POST /message/multiturn/incoming</text>
</g>
<!-- API: POST /v1/chat/completions&#45;&gt;Brain: POST /message/multiturn/incoming -->
<g id="edge1" class="edge">
<title>API: POST /v1/chat/completions&#45;&gt;Brain: POST /message/multiturn/incoming</title>
<path fill="none" stroke="black" d="M714.7,-850.27C742.22,-813.89 804.13,-732.03 836.05,-689.82"/>
<polygon fill="black" stroke="black" points="838.96,-691.78 842.21,-681.69 833.38,-687.55 838.96,-691.78"/>
</g>
<!-- Brain: POST /message/single/incoming -->
<g id="node19" class="node">
<title>Brain: POST /message/single/incoming</title>
<polygon fill="lightgreen" stroke="black" points="342.9,-829.57 49.9,-829.57 49.9,-793.57 342.9,-793.57 342.9,-829.57"/>
<text text-anchor="middle" x="196.4" y="-807.87" font-family="Times,serif" font-size="14.00" fill="#080537">Brain: POST /message/single/incoming</text>
</g>
<!-- API: POST /v1/completions&#45;&gt;Brain: POST /message/single/incoming -->
<g id="edge2" class="edge">
<title>API: POST /v1/completions&#45;&gt;Brain: POST /message/single/incoming</title>
<path fill="none" stroke="black" d="M357.54,-961.78C325.2,-931.64 260.02,-870.88 223.24,-836.59"/>
<polygon fill="black" stroke="black" points="225.55,-833.95 215.84,-829.69 220.77,-839.07 225.55,-833.95"/>
</g>
<!-- Brain: DELETE /memory -->
<g id="node8" class="node">
<title>Brain: DELETE /memory</title>
<polygon fill="lightgreen" stroke="black" points="1459.85,-927.41 1266.85,-927.41 1266.85,-891.41 1459.85,-891.41 1459.85,-927.41"/>
<text text-anchor="middle" x="1363.35" y="-905.71" font-family="Times,serif" font-size="14.00" fill="#080537">Brain: DELETE /memory</text>
</g>
<!-- ChromaDB: DELETE /memory/MEM_ID -->
<g id="node21" class="node">
<title>ChromaDB: DELETE /memory/MEM_ID</title>
<polygon fill="lightpink" stroke="black" points="1459.15,-1124.89 1160.15,-1124.89 1160.15,-1088.89 1459.15,-1088.89 1459.15,-1124.89"/>
<text text-anchor="middle" x="1309.65" y="-1103.19" font-family="Times,serif" font-size="14.00" fill="#080537">ChromaDB: DELETE /memory/MEM_ID</text>
</g>
<!-- Brain: DELETE /memory&#45;&gt;ChromaDB: DELETE /memory/MEM_ID -->
<g id="edge28" class="edge">
<title>Brain: DELETE /memory&#45;&gt;ChromaDB: DELETE /memory/MEM_ID</title>
<path fill="none" stroke="black" d="M1358.39,-927.63C1348.98,-962.24 1328.47,-1037.68 1317.28,-1078.8"/>
<polygon fill="black" stroke="black" points="1313.84,-1078.14 1314.59,-1088.71 1320.59,-1079.97 1313.84,-1078.14"/>
</g>
<!-- ChromaDB: GET /memory -->
<g id="node22" class="node">
<title>ChromaDB: GET /memory</title>
<polygon fill="lightpink" stroke="black" points="1671.57,-1075.64 1469.57,-1075.64 1469.57,-1039.64 1671.57,-1039.64 1671.57,-1075.64"/>
<text text-anchor="middle" x="1570.57" y="-1053.94" font-family="Times,serif" font-size="14.00" fill="#080537">ChromaDB: GET /memory</text>
</g>
<!-- Brain: DELETE /memory&#45;&gt;ChromaDB: GET /memory -->
<g id="edge27" class="edge">
<title>Brain: DELETE /memory&#45;&gt;ChromaDB: GET /memory</title>
<path fill="none" stroke="black" d="M1388.76,-927.58C1426.07,-954.27 1495.72,-1004.1 1537.14,-1033.73"/>
<polygon fill="black" stroke="black" points="1535.11,-1036.58 1545.28,-1039.55 1539.18,-1030.88 1535.11,-1036.58"/>
</g>
<!-- Brain: DELETE /scheduler/job/JOB_ID -->
<g id="node9" class="node">
<title>Brain: DELETE /scheduler/job/JOB_ID</title>
<polygon fill="lightgreen" stroke="black" points="1168.03,-387 883.03,-387 883.03,-351 1168.03,-351 1168.03,-387"/>
<text text-anchor="middle" x="1025.53" y="-365.3" font-family="Times,serif" font-size="14.00" fill="#080537">Brain: DELETE /scheduler/job/JOB_ID</text>
</g>
<!-- Scheduler: DELETE /jobs/JOB_ID -->
<g id="node45" class="node">
<title>Scheduler: DELETE /jobs/JOB_ID</title>
<polygon fill="lightseagreen" stroke="black" points="875,-387 624,-387 624,-351 875,-351 875,-387"/>
<text text-anchor="middle" x="749.5" y="-365.3" font-family="Times,serif" font-size="14.00" fill="#080537">Scheduler: DELETE /jobs/JOB_ID</text>
</g>
<!-- Brain: DELETE /scheduler/job/JOB_ID&#45;&gt;Scheduler: DELETE /jobs/JOB_ID -->
<g id="edge14" class="edge">
<title>Brain: DELETE /scheduler/job/JOB_ID&#45;&gt;Scheduler: DELETE /jobs/JOB_ID</title>
<path fill="none" stroke="black" d="M882.66,-369C882.51,-369 882.35,-369 882.19,-369"/>
<polygon fill="black" stroke="black" points="885.17,-365.5 875.17,-369 885.17,-372.5 885.17,-365.5"/>
</g>
<!-- Brain: GET /memory -->
<g id="node10" class="node">
<title>Brain: GET /memory</title>
<polygon fill="lightgreen" stroke="black" points="1808.22,-1208.3 1645.22,-1208.3 1645.22,-1172.3 1808.22,-1172.3 1808.22,-1208.3"/>
<text text-anchor="middle" x="1726.72" y="-1186.6" font-family="Times,serif" font-size="14.00" fill="#080537">Brain: GET /memory</text>
</g>
<!-- Brain: GET /memory&#45;&gt;ChromaDB: GET /memory -->
<g id="edge22" class="edge">
<title>Brain: GET /memory&#45;&gt;ChromaDB: GET /memory</title>
<path fill="none" stroke="black" d="M1705.34,-1172.13C1677.97,-1148.88 1630.42,-1108.49 1599.74,-1082.42"/>
<polygon fill="black" stroke="black" points="1601.84,-1079.61 1591.95,-1075.8 1597.3,-1084.94 1601.84,-1079.61"/>
</g>
<!-- Brain: GET /memory/semantic -->
<g id="node11" class="node">
<title>Brain: GET /memory/semantic</title>
<polygon fill="lightgreen" stroke="black" points="1096.03,-1128 864.03,-1128 864.03,-1092 1096.03,-1092 1096.03,-1128"/>
<text text-anchor="middle" x="980.03" y="-1106.3" font-family="Times,serif" font-size="14.00" fill="#080537">Brain: GET /memory/semantic</text>
</g>
<!-- ChromaDB: GET /memory/semantic -->
<g id="node25" class="node">
<title>ChromaDB: GET /memory/semantic</title>
<polygon fill="lightpink" stroke="black" points="856,-1128 585,-1128 585,-1092 856,-1092 856,-1128"/>
<text text-anchor="middle" x="720.5" y="-1106.3" font-family="Times,serif" font-size="14.00" fill="#080537">ChromaDB: GET /memory/semantic</text>
</g>
<!-- Brain: GET /memory/semantic&#45;&gt;ChromaDB: GET /memory/semantic -->
<g id="edge23" class="edge">
<title>Brain: GET /memory/semantic&#45;&gt;ChromaDB: GET /memory/semantic</title>
<path fill="none" stroke="black" d="M863.93,-1110C863.77,-1110 863.61,-1110 863.45,-1110"/>
<polygon fill="black" stroke="black" points="866.22,-1106.5 856.22,-1110 866.22,-1113.5 866.22,-1106.5"/>
</g>
<!-- Proxy: GET /api/models/MODEL_NAME -->
<g id="node41" class="node">
<title>Proxy: GET /api/models/MODEL_NAME</title>
<polygon fill="lightsteelblue" stroke="black" points="2448.4,-771.57 2150.4,-771.57 2150.4,-735.57 2448.4,-735.57 2448.4,-771.57"/>
<text text-anchor="middle" x="2299.4" y="-749.87" font-family="Times,serif" font-size="14.00" fill="#080537">Proxy: GET /api/models/MODEL_NAME</text>
</g>
<!-- Brain: GET /model/MODEL_NAME&#45;&gt;Proxy: GET /api/models/MODEL_NAME -->
<g id="edge11" class="edge">
<title>Brain: GET /model/MODEL_NAME&#45;&gt;Proxy: GET /api/models/MODEL_NAME</title>
<path fill="none" stroke="black" d="M2129.36,-752.63C2132.77,-752.65 2136.2,-752.67 2139.63,-752.69"/>
<polygon fill="black" stroke="black" points="2139.91,-756.19 2149.93,-752.75 2139.95,-749.19 2139.91,-756.19"/>
</g>
<!-- Brain: GET /models -->
<g id="node13" class="node">
<title>Brain: GET /models</title>
<polygon fill="lightgreen" stroke="black" points="3193.07,-741.3 3038.07,-741.3 3038.07,-705.3 3193.07,-705.3 3193.07,-741.3"/>
<text text-anchor="middle" x="3115.57" y="-719.6" font-family="Times,serif" font-size="14.00" fill="#080537">Brain: GET /models</text>
</g>
<!-- Proxy: GET /api/models -->
<g id="node40" class="node">
<title>Proxy: GET /api/models</title>
<polygon fill="lightsteelblue" stroke="black" points="2975.28,-757.29 2791.28,-757.29 2791.28,-721.29 2975.28,-721.29 2975.28,-757.29"/>
<text text-anchor="middle" x="2883.28" y="-735.59" font-family="Times,serif" font-size="14.00" fill="#080537">Proxy: GET /api/models</text>
</g>
<!-- Brain: GET /models&#45;&gt;Proxy: GET /api/models -->
<g id="edge10" class="edge">
<title>Brain: GET /models&#45;&gt;Proxy: GET /api/models</title>
<path fill="none" stroke="black" d="M3037.9,-728.65C3021.14,-729.8 3003.18,-731.04 2985.64,-732.24"/>
<polygon fill="black" stroke="black" points="2985.11,-728.77 2975.38,-732.95 2985.59,-735.75 2985.11,-728.77"/>
</g>
<!-- Brain: GET /scheduler/job -->
<g id="node14" class="node">
<title>Brain: GET /scheduler/job</title>
<polygon fill="lightgreen" stroke="black" points="1272.02,-816 1072.02,-816 1072.02,-780 1272.02,-780 1272.02,-816"/>
<text text-anchor="middle" x="1172.02" y="-794.3" font-family="Times,serif" font-size="14.00" fill="#080537">Brain: GET /scheduler/job</text>
</g>
<!-- Scheduler: GET /jobs -->
<g id="node46" class="node">
<title>Scheduler: GET /jobs</title>
<polygon fill="lightseagreen" stroke="black" points="1064,-816 897,-816 897,-780 1064,-780 1064,-816"/>
<text text-anchor="middle" x="980.5" y="-794.3" font-family="Times,serif" font-size="14.00" fill="#080537">Scheduler: GET /jobs</text>
</g>
<!-- Brain: GET /scheduler/job&#45;&gt;Scheduler: GET /jobs -->
<g id="edge13" class="edge">
<title>Brain: GET /scheduler/job&#45;&gt;Scheduler: GET /jobs</title>
<path fill="none" stroke="black" d="M1071.77,-798C1071.61,-798 1071.46,-798 1071.3,-798"/>
<polygon fill="black" stroke="black" points="1074.19,-794.5 1064.19,-798 1074.19,-801.5 1074.19,-794.5"/>
</g>
<!-- Brain: POST /embedding -->
<g id="node15" class="node">
<title>Brain: POST /embedding</title>
<polygon fill="lightgreen" stroke="black" points="1959.78,-260 1766.78,-260 1766.78,-224 1959.78,-224 1959.78,-260"/>
<text text-anchor="middle" x="1863.28" y="-238.3" font-family="Times,serif" font-size="14.00" fill="#080537">Brain: POST /embedding</text>
</g>
<!-- ChromaDB: POST /embedding -->
<g id="node27" class="node">
<title>ChromaDB: POST /embedding</title>
<polygon fill="lightpink" stroke="black" points="1796.06,-354.02 1564.06,-354.02 1564.06,-318.02 1796.06,-318.02 1796.06,-354.02"/>
<text text-anchor="middle" x="1680.06" y="-332.32" font-family="Times,serif" font-size="14.00" fill="#080537">ChromaDB: POST /embedding</text>
</g>
<!-- Brain: POST /embedding&#45;&gt;ChromaDB: POST /embedding -->
<g id="edge9" class="edge">
<title>Brain: POST /embedding&#45;&gt;ChromaDB: POST /embedding</title>
<path fill="none" stroke="black" d="M1827.95,-260.13C1798.42,-275.28 1756.16,-296.97 1724.36,-313.28"/>
<polygon fill="black" stroke="black" points="1722.58,-310.27 1715.28,-317.95 1725.77,-316.49 1722.58,-310.27"/>
</g>
<!-- Brain: POST /memory -->
<g id="node16" class="node">
<title>Brain: POST /memory</title>
<polygon fill="lightgreen" stroke="black" points="1525.51,-451.98 1353.51,-451.98 1353.51,-415.98 1525.51,-415.98 1525.51,-451.98"/>
<text text-anchor="middle" x="1439.51" y="-430.28" font-family="Times,serif" font-size="14.00" fill="#080537">Brain: POST /memory</text>
</g>
<!-- Brain: POST /memory&#45;&gt;ChromaDB: POST /embedding -->
<g id="edge25" class="edge">
<title>Brain: POST /memory&#45;&gt;ChromaDB: POST /embedding</title>
<path fill="none" stroke="black" d="M1483.91,-415.9C1524.04,-399.55 1583.23,-375.45 1626.08,-358"/>
<polygon fill="black" stroke="black" points="1627.57,-361.17 1635.51,-354.16 1624.93,-354.69 1627.57,-361.17"/>
</g>
<!-- ChromaDB: POST /memory -->
<g id="node28" class="node">
<title>ChromaDB: POST /memory</title>
<polygon fill="lightpink" stroke="black" points="1546.39,-238.59 1335.39,-238.59 1335.39,-202.59 1546.39,-202.59 1546.39,-238.59"/>
<text text-anchor="middle" x="1440.89" y="-216.89" font-family="Times,serif" font-size="14.00" fill="#080537">ChromaDB: POST /memory</text>
</g>
<!-- Brain: POST /memory&#45;&gt;ChromaDB: POST /memory -->
<g id="edge26" class="edge">
<title>Brain: POST /memory&#45;&gt;ChromaDB: POST /memory</title>
<path fill="none" stroke="black" d="M1439.62,-415.79C1439.87,-378.54 1440.42,-293.38 1440.71,-248.87"/>
<polygon fill="black" stroke="black" points="1444.21,-248.76 1440.77,-238.73 1437.21,-248.71 1444.21,-248.76"/>
</g>
<!-- Brain: GET /mode -->
<g id="node63" class="node">
<title>Brain: GET /mode</title>
<path fill="lightblue" stroke="black" d="M1448.21,-611.87C1448.21,-611.87 1329.21,-611.87 1329.21,-611.87 1323.21,-611.87 1317.21,-605.87 1317.21,-599.87 1317.21,-599.87 1317.21,-587.87 1317.21,-587.87 1317.21,-581.87 1323.21,-575.87 1329.21,-575.87 1329.21,-575.87 1448.21,-575.87 1448.21,-575.87 1454.21,-575.87 1460.21,-581.87 1460.21,-587.87 1460.21,-587.87 1460.21,-599.87 1460.21,-599.87 1460.21,-605.87 1454.21,-611.87 1448.21,-611.87"/>
<text text-anchor="middle" x="1388.71" y="-590.17" font-family="Times,serif" font-size="14.00" fill="#080537">Brain: GET /mode</text>
</g>
<!-- Brain: POST /memory&#45;&gt;Brain: GET /mode -->
<g id="edge24" class="edge">
<title>Brain: POST /memory&#45;&gt;Brain: GET /mode</title>
<path fill="none" stroke="black" d="M1433.78,-452.01C1424.98,-479.72 1408.05,-533 1397.63,-565.79"/>
<polygon fill="black" stroke="black" points="1394.19,-565.07 1394.5,-575.66 1400.86,-567.19 1394.19,-565.07"/>
</g>
<!-- Brain: POST /message/incoming -->
<g id="node17" class="node">
<title>Brain: POST /message/incoming</title>
<polygon fill="lightgreen" stroke="black" points="2739.63,-1297.23 2494.63,-1297.23 2494.63,-1261.23 2739.63,-1261.23 2739.63,-1297.23"/>
<text text-anchor="middle" x="2617.13" y="-1275.53" font-family="Times,serif" font-size="14.00" fill="#080537">Brain: POST /message/incoming</text>
</g>
<!-- Contacts: GET /search -->
<g id="node32" class="node">
<title>Contacts: GET /search</title>
<polygon fill="lightcoral" stroke="black" points="3005.45,-1297.24 2829.45,-1297.24 2829.45,-1261.24 3005.45,-1261.24 3005.45,-1297.24"/>
<text text-anchor="middle" x="2917.45" y="-1275.54" font-family="Times,serif" font-size="14.00" fill="#080537">Contacts: GET /search</text>
</g>
<!-- Brain: POST /message/incoming&#45;&gt;Contacts: GET /search -->
<g id="edge15" class="edge">
<title>Brain: POST /message/incoming&#45;&gt;Contacts: GET /search</title>
<path fill="none" stroke="black" d="M2739.72,-1279.23C2766.09,-1279.23 2793.64,-1279.23 2818.95,-1279.23"/>
<polygon fill="black" stroke="black" points="2819.28,-1282.73 2829.28,-1279.23 2819.28,-1275.73 2819.28,-1282.73"/>
</g>
<!-- Contacts: POST /contact -->
<g id="node34" class="node">
<title>Contacts: POST /contact</title>
<polygon fill="lightcoral" stroke="black" points="2770.49,-1583.46 2580.49,-1583.46 2580.49,-1547.46 2770.49,-1547.46 2770.49,-1583.46"/>
<text text-anchor="middle" x="2675.49" y="-1561.76" font-family="Times,serif" font-size="14.00" fill="#080537">Contacts: POST /contact</text>
</g>
<!-- Brain: POST /message/incoming&#45;&gt;Contacts: POST /contact -->
<g id="edge16" class="edge">
<title>Brain: POST /message/incoming&#45;&gt;Contacts: POST /contact</title>
<path fill="none" stroke="black" d="M2620.87,-1297.57C2630.79,-1346.24 2657.84,-1478.92 2669.74,-1537.28"/>
<polygon fill="black" stroke="black" points="2666.35,-1538.17 2671.78,-1547.27 2673.21,-1536.78 2666.35,-1538.17"/>
<text text-anchor="middle" x="2604.79" y="-1426.06" font-family="Times,serif" font-size="14.00">if not found</text>
</g>
<!-- Summarize: POST /buffer -->
<g id="node59" class="node">
<title>Summarize: POST /buffer</title>
<polygon fill="lightgray" stroke="black" points="2773.76,-1011 2575.76,-1011 2575.76,-975 2773.76,-975 2773.76,-1011"/>
<text text-anchor="middle" x="2674.76" y="-989.3" font-family="Times,serif" font-size="14.00" fill="#080537">Summarize: POST /buffer</text>
</g>
<!-- Brain: POST /message/incoming&#45;&gt;Summarize: POST /buffer -->
<g id="edge17" class="edge">
<title>Brain: POST /message/incoming&#45;&gt;Summarize: POST /buffer</title>
<path fill="none" stroke="black" d="M2620.82,-1260.89C2630.62,-1212.22 2657.33,-1079.54 2669.08,-1021.18"/>
<polygon fill="black" stroke="black" points="2672.55,-1021.68 2671.1,-1011.19 2665.69,-1020.3 2672.55,-1021.68"/>
</g>
<!-- Intents: POST /intents -->
<g id="node39" class="node">
<title>Intents: POST /intents</title>
<polygon fill="#eedd82" stroke="black" points="1294.17,-662.24 1118.17,-662.24 1118.17,-626.24 1294.17,-626.24 1294.17,-662.24"/>
<text text-anchor="middle" x="1206.17" y="-640.54" font-family="Times,serif" font-size="14.00" fill="#080537">Intents: POST /intents</text>
</g>
<!-- Brain: POST /message/multiturn/incoming&#45;&gt;Intents: POST /intents -->
<g id="edge19" class="edge">
<title>Brain: POST /message/multiturn/incoming&#45;&gt;Intents: POST /intents</title>
<path fill="none" stroke="black" d="M1015.02,-661.51C1046.6,-659.87 1078.88,-657.9 1107.7,-655.82"/>
<polygon fill="black" stroke="black" points="1108.03,-659.31 1117.75,-655.08 1107.52,-652.33 1108.03,-659.31"/>
<text text-anchor="middle" x="1066.41" y="-647.38" font-family="Times,serif" font-size="14.00">intent detection</text>
</g>
<!-- Brain: POST /message/multiturn/incoming&#45;&gt;Intents: POST /intents -->
<g id="edge21" class="edge">
<title>Brain: POST /message/multiturn/incoming&#45;&gt;Intents: POST /intents</title>
<path fill="none" stroke="black" d="M1015.05,-648.04C1046.7,-646.2 1079.06,-644.61 1107.93,-643.52"/>
<polygon fill="black" stroke="black" points="1108.13,-647.01 1117.99,-643.15 1107.87,-640.02 1108.13,-647.01"/>
<text text-anchor="middle" x="975.19" y="-634.12" font-family="Times,serif" font-size="14.00">response post&#45;processing</text>
</g>
<!-- Proxy: POST /from/api/multiturn -->
<g id="node43" class="node">
<title>Proxy: POST /from/api/multiturn</title>
<polygon fill="lightsteelblue" stroke="black" points="733.32,-512.62 485.32,-512.62 485.32,-476.62 733.32,-476.62 733.32,-512.62"/>
<text text-anchor="middle" x="609.32" y="-490.92" font-family="Times,serif" font-size="14.00" fill="#080537">Proxy: POST /from/api/multiturn</text>
</g>
<!-- Brain: POST /message/multiturn/incoming&#45;&gt;Proxy: POST /from/api/multiturn -->
<g id="edge20" class="edge">
<title>Brain: POST /message/multiturn/incoming&#45;&gt;Proxy: POST /from/api/multiturn</title>
<path fill="none" stroke="black" d="M829.54,-645.47C784.88,-614.88 694.4,-552.9 644.44,-518.67"/>
<polygon fill="black" stroke="black" points="646.13,-515.59 635.9,-512.82 642.17,-521.36 646.13,-515.59"/>
</g>
<!-- Proxy: POST /from/api/completions -->
<g id="node42" class="node">
<title>Proxy: POST /from/api/completions</title>
<polygon fill="lightsteelblue" stroke="black" points="338.31,-605.34 72.31,-605.34 72.31,-569.34 338.31,-569.34 338.31,-605.34"/>
<text text-anchor="middle" x="205.31" y="-583.64" font-family="Times,serif" font-size="14.00" fill="#080537">Proxy: POST /from/api/completions</text>
</g>
<!-- Brain: POST /message/single/incoming&#45;&gt;Proxy: POST /from/api/completions -->
<g id="edge18" class="edge">
<title>Brain: POST /message/single/incoming&#45;&gt;Proxy: POST /from/api/completions</title>
<path fill="none" stroke="black" d="M197.13,-793.22C198.68,-754.11 202.33,-662.34 204.19,-615.67"/>
<polygon fill="black" stroke="black" points="207.69,-615.76 204.59,-605.63 200.69,-615.48 207.69,-615.76"/>
</g>
<!-- Brain: POST /scheduler/job -->
<g id="node20" class="node">
<title>Brain: POST /scheduler/job</title>
<polygon fill="lightgreen" stroke="black" points="1308.64,-1011 1099.64,-1011 1099.64,-975 1308.64,-975 1308.64,-1011"/>
<text text-anchor="middle" x="1204.14" y="-989.3" font-family="Times,serif" font-size="14.00" fill="#080537">Brain: POST /scheduler/job</text>
</g>
<!-- Scheduler: POST /jobs -->
<g id="node47" class="node">
<title>Scheduler: POST /jobs</title>
<polygon fill="lightseagreen" stroke="black" points="1091.62,-1011 915.62,-1011 915.62,-975 1091.62,-975 1091.62,-1011"/>
<text text-anchor="middle" x="1003.62" y="-989.3" font-family="Times,serif" font-size="14.00" fill="#080537">Scheduler: POST /jobs</text>
</g>
<!-- Brain: POST /scheduler/job&#45;&gt;Scheduler: POST /jobs -->
<g id="edge12" class="edge">
<title>Brain: POST /scheduler/job&#45;&gt;Scheduler: POST /jobs</title>
<path fill="none" stroke="black" d="M1099.47,-993C1099.31,-993 1099.15,-993 1098.99,-993"/>
<polygon fill="black" stroke="black" points="1101.8,-989.5 1091.8,-993 1101.8,-996.5 1101.8,-989.5"/>
</g>
<!-- ChromaDB: GET /memory/id/MEM_ID -->
<g id="node23" class="node">
<title>ChromaDB: GET /memory/id/MEM_ID</title>
<polygon fill="lightpink" stroke="black" points="1808,-855 1521,-855 1521,-819 1808,-819 1808,-855"/>
<text text-anchor="middle" x="1664.5" y="-833.3" font-family="Times,serif" font-size="14.00" fill="#080537">ChromaDB: GET /memory/id/MEM_ID</text>
</g>
<!-- ChromaDB: GET /memory/search -->
<g id="node24" class="node">
<title>ChromaDB: GET /memory/search</title>
<polygon fill="lightpink" stroke="black" points="644,-621 390,-621 390,-585 644,-585 644,-621"/>
<text text-anchor="middle" x="517" y="-599.3" font-family="Times,serif" font-size="14.00" fill="#080537">ChromaDB: GET /memory/search</text>
</g>
<!-- ChromaDB: PATCH /memory/MEM_ID -->
<g id="node26" class="node">
<title>ChromaDB: PATCH /memory/MEM_ID</title>
<polygon fill="lightpink" stroke="black" points="1262,-153 975,-153 975,-117 1262,-117 1262,-153"/>
<text text-anchor="middle" x="1118.5" y="-131.3" font-family="Times,serif" font-size="14.00" fill="#080537">ChromaDB: PATCH /memory/MEM_ID</text>
</g>
<!-- ChromaDB: PUT /memory/MEM_ID -->
<g id="node29" class="node">
<title>ChromaDB: PUT /memory/MEM_ID</title>
<polygon fill="lightpink" stroke="black" points="1594,-153 1326,-153 1326,-117 1594,-117 1594,-153"/>
<text text-anchor="middle" x="1460" y="-131.3" font-family="Times,serif" font-size="14.00" fill="#080537">ChromaDB: PUT /memory/MEM_ID</text>
</g>
<!-- Contacts: DELETE /contact/CONTACT_ID -->
<g id="node30" class="node">
<title>Contacts: DELETE /contact/CONTACT_ID</title>
<polygon fill="lightcoral" stroke="black" points="1168,-1245 858,-1245 858,-1209 1168,-1209 1168,-1245"/>
<text text-anchor="middle" x="1013" y="-1223.3" font-family="Times,serif" font-size="14.00" fill="#080537">Contacts: DELETE /contact/CONTACT_ID</text>
</g>
<!-- Contacts: GET /contacts -->
<g id="node31" class="node">
<title>Contacts: GET /contacts</title>
<polygon fill="lightcoral" stroke="black" points="1436,-36 1248,-36 1248,0 1436,0 1436,-36"/>
<text text-anchor="middle" x="1342" y="-14.3" font-family="Times,serif" font-size="14.00" fill="#080537">Contacts: GET /contacts</text>
</g>
<!-- Contacts: PATCH /contact/CONTACT_ID -->
<g id="node33" class="node">
<title>Contacts: PATCH /contact/CONTACT_ID</title>
<polygon fill="lightcoral" stroke="black" points="805,-1245 507,-1245 507,-1209 805,-1209 805,-1245"/>
<text text-anchor="middle" x="656" y="-1223.3" font-family="Times,serif" font-size="14.00" fill="#080537">Contacts: PATCH /contact/CONTACT_ID</text>
</g>
<!-- Contacts: PUT /contact/CONTACT_ID -->
<g id="node35" class="node">
<title>Contacts: PUT /contact/CONTACT_ID</title>
<polygon fill="lightcoral" stroke="black" points="1839,-972 1560,-972 1560,-936 1839,-936 1839,-972"/>
<text text-anchor="middle" x="1699.5" y="-950.3" font-family="Times,serif" font-size="14.00" fill="#080537">Contacts: PUT /contact/CONTACT_ID</text>
</g>
<!-- iMessage: POST /imessage/recv -->
<g id="node36" class="node">
<title>iMessage: POST /imessage/recv</title>
<polygon fill="lightcyan" stroke="black" points="2397.73,-1297.83 2153.73,-1297.83 2153.73,-1261.83 2397.73,-1261.83 2397.73,-1297.83"/>
<text text-anchor="middle" x="2275.73" y="-1276.13" font-family="Times,serif" font-size="14.00" fill="#080537">iMessage: POST /imessage/recv</text>
</g>
<!-- iMessage: POST /imessage/recv&#45;&gt;Brain: POST /message/incoming -->
<g id="edge31" class="edge">
<title>iMessage: POST /imessage/recv&#45;&gt;Brain: POST /message/incoming</title>
<path fill="none" stroke="black" d="M2398.02,-1279.62C2426.09,-1279.57 2456.06,-1279.51 2484.54,-1279.46"/>
<polygon fill="black" stroke="black" points="2484.55,-1282.96 2494.55,-1279.45 2484.54,-1275.96 2484.55,-1282.96"/>
</g>
<!-- BlueBubbles: POST /api/v1/message/text -->
<g id="node64" class="node">
<title>BlueBubbles: POST /api/v1/message/text</title>
<path fill="lightblue" stroke="black" d="M2099.4,-1297.98C2099.4,-1297.98 1815.4,-1297.98 1815.4,-1297.98 1809.4,-1297.98 1803.4,-1291.98 1803.4,-1285.98 1803.4,-1285.98 1803.4,-1273.98 1803.4,-1273.98 1803.4,-1267.98 1809.4,-1261.98 1815.4,-1261.98 1815.4,-1261.98 2099.4,-1261.98 2099.4,-1261.98 2105.4,-1261.98 2111.4,-1267.98 2111.4,-1273.98 2111.4,-1273.98 2111.4,-1285.98 2111.4,-1285.98 2111.4,-1291.98 2105.4,-1297.98 2099.4,-1297.98"/>
<text text-anchor="middle" x="1957.4" y="-1276.28" font-family="Times,serif" font-size="14.00" fill="#080537">BlueBubbles: POST /api/v1/message/text</text>
</g>
<!-- iMessage: POST /imessage/recv&#45;&gt;BlueBubbles: POST /api/v1/message/text -->
<g id="edge32" class="edge">
<title>iMessage: POST /imessage/recv&#45;&gt;BlueBubbles: POST /api/v1/message/text</title>
<path fill="none" stroke="black" d="M2153.56,-1279.89C2143.13,-1279.89 2132.48,-1279.9 2121.79,-1279.91"/>
<polygon fill="black" stroke="black" points="2121.54,-1276.41 2111.54,-1279.91 2121.55,-1283.41 2121.54,-1276.41"/>
<text text-anchor="middle" x="2106.04" y="-1268.7" font-family="Times,serif" font-size="14.00">if Brain replies</text>
</g>
<!-- iMessage: POST /imessage/send -->
<g id="node37" class="node">
<title>iMessage: POST /imessage/send</title>
<polygon fill="lightcyan" stroke="black" points="1780.03,-1297.43 1533.03,-1297.43 1533.03,-1261.43 1780.03,-1261.43 1780.03,-1297.43"/>
<text text-anchor="middle" x="1656.53" y="-1275.73" font-family="Times,serif" font-size="14.00" fill="#080537">iMessage: POST /imessage/send</text>
</g>
<!-- iMessage: POST /imessage/send&#45;&gt;BlueBubbles: POST /api/v1/message/text -->
<g id="edge29" class="edge">
<title>iMessage: POST /imessage/send&#45;&gt;BlueBubbles: POST /api/v1/message/text</title>
<path fill="none" stroke="black" d="M1780.2,-1279.66C1784.49,-1279.67 1788.8,-1279.67 1793.13,-1279.68"/>
<polygon fill="black" stroke="black" points="1793.25,-1283.18 1803.26,-1279.7 1793.27,-1276.18 1793.25,-1283.18"/>
</g>
<!-- BlueBubbles: POST /api/v1/chat/new -->
<g id="node65" class="node">
<title>BlueBubbles: POST /api/v1/chat/new</title>
<path fill="lightblue" stroke="black" d="M1513,-1297.07C1513,-1297.07 1260,-1297.07 1260,-1297.07 1254,-1297.07 1248,-1291.07 1248,-1285.07 1248,-1285.07 1248,-1273.07 1248,-1273.07 1248,-1267.07 1254,-1261.07 1260,-1261.07 1260,-1261.07 1513,-1261.07 1513,-1261.07 1519,-1261.07 1525,-1267.07 1525,-1273.07 1525,-1273.07 1525,-1285.07 1525,-1285.07 1525,-1291.07 1519,-1297.07 1513,-1297.07"/>
<text text-anchor="middle" x="1386.5" y="-1275.37" font-family="Times,serif" font-size="14.00" fill="#080537">BlueBubbles: POST /api/v1/chat/new</text>
</g>
<!-- iMessage: POST /imessage/send&#45;&gt;BlueBubbles: POST /api/v1/chat/new -->
<g id="edge30" class="edge">
<title>iMessage: POST /imessage/send&#45;&gt;BlueBubbles: POST /api/v1/chat/new</title>
<path fill="none" stroke="black" d="M1532.97,-1279.27C1532.81,-1279.27 1532.64,-1279.26 1532.48,-1279.26"/>
<polygon fill="black" stroke="black" points="1535.05,-1275.77 1525.04,-1279.25 1535.04,-1282.77 1535.05,-1275.77"/>
<text text-anchor="middle" x="1495.04" y="-1268.06" font-family="Times,serif" font-size="14.00">if chat does not exist</text>
</g>
<!-- Intents: GET /intents -->
<g id="node38" class="node">
<title>Intents: GET /intents</title>
<polygon fill="#eedd82" stroke="black" points="479,-1401 312,-1401 312,-1365 479,-1365 479,-1401"/>
<text text-anchor="middle" x="395.5" y="-1379.3" font-family="Times,serif" font-size="14.00" fill="#080537">Intents: GET /intents</text>
</g>
<!-- Intents: POST /intents&#45;&gt;Brain: DELETE /memory -->
<g id="edge36" class="edge">
<title>Intents: POST /intents&#45;&gt;Brain: DELETE /memory</title>
<path fill="none" stroke="black" d="M1216.97,-662.47C1244.18,-708.37 1315.63,-828.91 1347.55,-882.76"/>
<polygon fill="black" stroke="black" points="1344.57,-884.59 1352.68,-891.4 1350.59,-881.02 1344.57,-884.59"/>
</g>
<!-- Intents: POST /intents&#45;&gt;Brain: POST /memory -->
<g id="edge35" class="edge">
<title>Intents: POST /intents&#45;&gt;Brain: POST /memory</title>
<path fill="none" stroke="black" d="M1226.47,-625.95C1268.38,-588.19 1364.5,-501.57 1411.96,-458.8"/>
<polygon fill="black" stroke="black" points="1414.33,-461.37 1419.42,-452.08 1409.65,-456.17 1414.33,-461.37"/>
</g>
<!-- Intents: POST /intents&#45;&gt;Brain: GET /mode -->
<g id="edge33" class="edge">
<title>Intents: POST /intents&#45;&gt;Brain: GET /mode</title>
<path fill="none" stroke="black" d="M1271.56,-626.2C1285.14,-622.45 1299.56,-618.47 1313.46,-614.63"/>
<polygon fill="black" stroke="black" points="1314.77,-617.9 1323.48,-611.87 1312.91,-611.16 1314.77,-617.9"/>
</g>
<!-- Brain: POST /mode/MODE -->
<g id="node66" class="node">
<title>Brain: POST /mode/MODE</title>
<path fill="lightblue" stroke="black" d="M1207.43,-490.6C1207.43,-490.6 1027.43,-490.6 1027.43,-490.6 1021.43,-490.6 1015.43,-484.6 1015.43,-478.6 1015.43,-478.6 1015.43,-466.6 1015.43,-466.6 1015.43,-460.6 1021.43,-454.6 1027.43,-454.6 1027.43,-454.6 1207.43,-454.6 1207.43,-454.6 1213.43,-454.6 1219.43,-460.6 1219.43,-466.6 1219.43,-466.6 1219.43,-478.6 1219.43,-478.6 1219.43,-484.6 1213.43,-490.6 1207.43,-490.6"/>
<text text-anchor="middle" x="1117.43" y="-468.9" font-family="Times,serif" font-size="14.00" fill="#080537">Brain: POST /mode/MODE</text>
</g>
<!-- Intents: POST /intents&#45;&gt;Brain: POST /mode/MODE -->
<g id="edge34" class="edge">
<title>Intents: POST /intents&#45;&gt;Brain: POST /mode/MODE</title>
<path fill="none" stroke="black" d="M1196.84,-626.2C1181.26,-596.07 1149.86,-535.33 1131.56,-499.93"/>
<polygon fill="black" stroke="black" points="1134.47,-497.94 1126.77,-490.66 1128.25,-501.15 1134.47,-497.94"/>
</g>
<!-- Ollama: GET /api/tags -->
<g id="node68" class="node">
<title>Ollama: GET /api/tags</title>
<path fill="lightblue" stroke="black" d="M2675.32,-767.1C2675.32,-767.1 2526.32,-767.1 2526.32,-767.1 2520.32,-767.1 2514.32,-761.1 2514.32,-755.1 2514.32,-755.1 2514.32,-743.1 2514.32,-743.1 2514.32,-737.1 2520.32,-731.1 2526.32,-731.1 2526.32,-731.1 2675.32,-731.1 2675.32,-731.1 2681.32,-731.1 2687.32,-737.1 2687.32,-743.1 2687.32,-743.1 2687.32,-755.1 2687.32,-755.1 2687.32,-761.1 2681.32,-767.1 2675.32,-767.1"/>
<text text-anchor="middle" x="2600.82" y="-745.4" font-family="Times,serif" font-size="14.00" fill="#080537">Ollama: GET /api/tags</text>
</g>
<!-- Proxy: GET /api/models&#45;&gt;Ollama: GET /api/tags -->
<g id="edge40" class="edge">
<title>Proxy: GET /api/models&#45;&gt;Ollama: GET /api/tags</title>
<path fill="none" stroke="black" d="M2791.18,-742.49C2761.24,-743.53 2727.94,-744.69 2697.66,-745.74"/>
<polygon fill="black" stroke="black" points="2697.39,-742.25 2687.52,-746.09 2697.63,-749.24 2697.39,-742.25"/>
</g>
<!-- Proxy: GET /api/models/MODEL_NAME&#45;&gt;Ollama: GET /api/tags -->
<g id="edge41" class="edge">
<title>Proxy: GET /api/models/MODEL_NAME&#45;&gt;Ollama: GET /api/tags</title>
<path fill="none" stroke="black" d="M2448.79,-751.36C2467.47,-751.08 2486.18,-750.8 2503.77,-750.54"/>
<polygon fill="black" stroke="black" points="2504.05,-754.04 2513.99,-750.39 2503.94,-747.04 2504.05,-754.04"/>
</g>
<!-- Ollama: POST /api/generate -->
<g id="node67" class="node">
<title>Ollama: POST /api/generate</title>
<path fill="lightblue" stroke="black" d="M438.08,-406.38C438.08,-406.38 247.08,-406.38 247.08,-406.38 241.08,-406.38 235.08,-400.38 235.08,-394.38 235.08,-394.38 235.08,-382.38 235.08,-382.38 235.08,-376.38 241.08,-370.38 247.08,-370.38 247.08,-370.38 438.08,-370.38 438.08,-370.38 444.08,-370.38 450.08,-376.38 450.08,-382.38 450.08,-382.38 450.08,-394.38 450.08,-394.38 450.08,-400.38 444.08,-406.38 438.08,-406.38"/>
<text text-anchor="middle" x="342.58" y="-384.68" font-family="Times,serif" font-size="14.00" fill="#080537">Ollama: POST /api/generate</text>
</g>
<!-- Proxy: POST /from/api/completions&#45;&gt;Ollama: POST /api/generate -->
<g id="edge37" class="edge">
<title>Proxy: POST /from/api/completions&#45;&gt;Ollama: POST /api/generate</title>
<path fill="none" stroke="black" d="M217.74,-569.33C242.02,-534.13 295.89,-456.05 324.27,-414.92"/>
<polygon fill="black" stroke="black" points="327.29,-416.71 330.09,-406.49 321.53,-412.74 327.29,-416.71"/>
</g>
<!-- Proxy: POST /from/api/multiturn&#45;&gt;Ollama: POST /api/generate -->
<g id="edge38" class="edge">
<title>Proxy: POST /from/api/multiturn&#45;&gt;Ollama: POST /api/generate</title>
<path fill="none" stroke="black" d="M564.07,-476.6C518.09,-458.28 446.81,-429.89 397.59,-410.29"/>
<polygon fill="black" stroke="black" points="398.64,-406.94 388.05,-406.49 396.05,-413.44 398.64,-406.94"/>
</g>
<!-- Proxy: POST /from/imessage -->
<g id="node44" class="node">
<title>Proxy: POST /from/imessage</title>
<polygon fill="lightsteelblue" stroke="black" points="462.29,-192 241.29,-192 241.29,-156 462.29,-156 462.29,-192"/>
<text text-anchor="middle" x="351.79" y="-170.3" font-family="Times,serif" font-size="14.00" fill="#080537">Proxy: POST /from/imessage</text>
</g>
<!-- Proxy: POST /from/imessage&#45;&gt;Ollama: POST /api/generate -->
<g id="edge39" class="edge">
<title>Proxy: POST /from/imessage&#45;&gt;Ollama: POST /api/generate</title>
<path fill="none" stroke="black" d="M351.01,-192.28C349.4,-229.7 345.72,-315.25 343.8,-359.97"/>
<polygon fill="black" stroke="black" points="340.3,-360.01 343.36,-370.15 347.29,-360.31 340.3,-360.01"/>
</g>
<!-- External: POST &lt;external_url&gt; -->
<g id="node69" class="node">
<title>External: POST &lt;external_url&gt;</title>
<path fill="lightblue" stroke="black" d="M893,-1011C893,-1011 675,-1011 675,-1011 669,-1011 663,-1005 663,-999 663,-999 663,-987 663,-987 663,-981 669,-975 675,-975 675,-975 893,-975 893,-975 899,-975 905,-981 905,-987 905,-987 905,-999 905,-999 905,-1005 899,-1011 893,-1011"/>
<text text-anchor="middle" x="784" y="-989.3" font-family="Times,serif" font-size="14.00" fill="#080537">External: POST &lt;external_url&gt;</text>
</g>
<!-- Scheduler: POST /jobs&#45;&gt;External: POST &lt;external_url&gt; -->
<g id="edge42" class="edge">
<title>Scheduler: POST /jobs&#45;&gt;External: POST &lt;external_url&gt;</title>
<path fill="none" stroke="black" d="M915.55,-993C915.45,-993 915.34,-993 915.23,-993"/>
<polygon fill="black" stroke="black" points="915.1,-989.5 905.1,-993 915.1,-996.5 915.1,-989.5"/>
<text text-anchor="middle" x="864.27" y="-996.8" font-family="Times,serif" font-size="14.00">when job runs</text>
</g>
<!-- Scheduler: POST /jobs/JOB_ID/pause -->
<g id="node48" class="node">
<title>Scheduler: POST /jobs/JOB_ID/pause</title>
<polygon fill="lightseagreen" stroke="black" points="823,-153 546,-153 546,-117 823,-117 823,-153"/>
<text text-anchor="middle" x="684.5" y="-131.3" font-family="Times,serif" font-size="14.00" fill="#080537">Scheduler: POST /jobs/JOB_ID/pause</text>
</g>
<!-- Scheduler: POST /jobs/JOB_ID/resume -->
<g id="node49" class="node">
<title>Scheduler: POST /jobs/JOB_ID/resume</title>
<polygon fill="lightseagreen" stroke="black" points="1185,-1362 897,-1362 897,-1326 1185,-1326 1185,-1362"/>
<text text-anchor="middle" x="1041" y="-1340.3" font-family="Times,serif" font-size="14.00" fill="#080537">Scheduler: POST /jobs/JOB_ID/resume</text>
</g>
<!-- Summarize: DELETE /buffer/USER_ID -->
<g id="node50" class="node">
<title>Summarize: DELETE /buffer/USER_ID</title>
<polygon fill="lightgray" stroke="black" points="836,-1362 546,-1362 546,-1326 836,-1326 836,-1362"/>
<text text-anchor="middle" x="691" y="-1340.3" font-family="Times,serif" font-size="14.00" fill="#080537">Summarize: DELETE /buffer/USER_ID</text>
</g>
<!-- Summarize: DELETE /summary/ID -->
<g id="node51" class="node">
<title>Summarize: DELETE /summary/ID</title>
<polygon fill="lightgray" stroke="black" points="1083,-582 819,-582 819,-546 1083,-546 1083,-582"/>
<text text-anchor="middle" x="951" y="-560.3" font-family="Times,serif" font-size="14.00" fill="#080537">Summarize: DELETE /summary/ID</text>
</g>
<!-- Summarize: DELETE /summary/user/USER_ID -->
<g id="node52" class="node">
<title>Summarize: DELETE /summary/user/USER_ID</title>
<polygon fill="lightgray" stroke="black" points="896,-270 546,-270 546,-234 896,-234 896,-270"/>
<text text-anchor="middle" x="721" y="-248.3" font-family="Times,serif" font-size="14.00" fill="#080537">Summarize: DELETE /summary/user/USER_ID</text>
</g>
<!-- Summarize: GET /buffer -->
<g id="node53" class="node">
<title>Summarize: GET /buffer</title>
<polygon fill="lightgray" stroke="black" points="1710,-36 1521,-36 1521,0 1710,0 1710,-36"/>
<text text-anchor="middle" x="1615.5" y="-14.3" font-family="Times,serif" font-size="14.00" fill="#080537">Summarize: GET /buffer</text>
</g>
<!-- Summarize: GET /buffer/USER_ID -->
<g id="node54" class="node">
<title>Summarize: GET /buffer/USER_ID</title>
<polygon fill="lightgray" stroke="black" points="650,-738 390,-738 390,-702 650,-702 650,-738"/>
<text text-anchor="middle" x="520" y="-716.3" font-family="Times,serif" font-size="14.00" fill="#080537">Summarize: GET /buffer/USER_ID</text>
</g>
<!-- Summarize: GET /context/USER_ID -->
<g id="node55" class="node">
<title>Summarize: GET /context/USER_ID</title>
<polygon fill="lightgray" stroke="black" points="1908,-660 1638,-660 1638,-624 1908,-624 1908,-660"/>
<text text-anchor="middle" x="1773" y="-638.3" font-family="Times,serif" font-size="14.00" fill="#080537">Summarize: GET /context/USER_ID</text>
</g>
<!-- Summarize: GET /summary/ID -->
<g id="node56" class="node">
<title>Summarize: GET /summary/ID</title>
<polygon fill="lightgray" stroke="black" points="1560,-1401 1326,-1401 1326,-1365 1560,-1365 1560,-1401"/>
<text text-anchor="middle" x="1443" y="-1379.3" font-family="Times,serif" font-size="14.00" fill="#080537">Summarize: GET /summary/ID</text>
</g>
<!-- Summarize: GET /summary/search -->
<g id="node57" class="node">
<title>Summarize: GET /summary/search</title>
<polygon fill="lightgray" stroke="black" points="1903,-1401 1638,-1401 1638,-1365 1903,-1365 1903,-1401"/>
<text text-anchor="middle" x="1770.5" y="-1379.3" font-family="Times,serif" font-size="14.00" fill="#080537">Summarize: GET /summary/search</text>
</g>
<!-- Summarize: GET /summary/user/USER_ID -->
<g id="node58" class="node">
<title>Summarize: GET /summary/user/USER_ID</title>
<polygon fill="lightgray" stroke="black" points="1841,-543 1521,-543 1521,-507 1841,-507 1841,-543"/>
<text text-anchor="middle" x="1681" y="-521.3" font-family="Times,serif" font-size="14.00" fill="#080537">Summarize: GET /summary/user/USER_ID</text>
</g>
<!-- Summarize: POST /summarize_buffers -->
<g id="node60" class="node">
<title>Summarize: POST /summarize_buffers</title>
<polygon fill="lightgray" stroke="black" points="291,-303.62 0,-303.62 0,-267.62 291,-267.62 291,-303.62"/>
<text text-anchor="middle" x="145.5" y="-281.92" font-family="Times,serif" font-size="14.00" fill="#080537">Summarize: POST /summarize_buffers</text>
</g>
<!-- Summarize: POST /summarize_buffers&#45;&gt;Ollama: POST /api/generate -->
<g id="edge43" class="edge">
<title>Summarize: POST /summarize_buffers&#45;&gt;Ollama: POST /api/generate</title>
<path fill="none" stroke="black" d="M180.28,-303.76C213.25,-320.95 262.9,-346.84 298.6,-365.45"/>
<polygon fill="black" stroke="black" points="297.33,-368.74 307.82,-370.26 300.57,-362.53 297.33,-368.74"/>
<text text-anchor="middle" x="190.33" y="-340.69" font-family="Times,serif" font-size="14.00">summarization</text>
</g>
<!-- Summarize: POST /summary -->
<g id="node61" class="node">
<title>Summarize: POST /summary</title>
<polygon fill="lightgray" stroke="black" points="1197,-36 975,-36 975,0 1197,0 1197,-36"/>
<text text-anchor="middle" x="1086" y="-14.3" font-family="Times,serif" font-size="14.00" fill="#080537">Summarize: POST /summary</text>
</g>
</g>
</svg>
